<svg xmlns="http://www.w3.org/2000/svg" viewBox="0 0 323.22 339.69"><defs><style>.cls-1{fill:#ebebeb;}.cls-2,.cls-7{fill:#fff;}.cls-3{fill:#f5f5f5;}.cls-4{fill:#e0e0e0;}.cls-5{fill:#e8505b;}.cls-6{fill:#44aa69;}.cls-7{fill-rule:evenodd;}.cls-8{fill:#65bef2;}.cls-9{fill:#263238;}.cls-10{fill:#455a64;}.cls-11{fill:#ffbe9d;}.cls-12{opacity:0.4;}.cls-13{opacity:0.5;}.cls-14{opacity:0.6;}.cls-15{fill:#eb996e;}</style></defs><g id="Background_Complete" data-name="Background Complete"><path class="cls-1" d="M161.87,151.21h0a26.08,26.08,0,0,1-26.08-26.09h0A26.08,26.08,0,0,1,161.87,99h0A26.08,26.08,0,0,1,188,125.12h0A26.08,26.08,0,0,1,161.87,151.21Z" transform="translate(-94.64 -73.18)"/><rect class="cls-2" x="55.41" y="46.13" width="5.4" height="17.44"/><path class="cls-2" d="M152.72,117a3.22,3.22,0,1,0-3.2-3.22A3.21,3.21,0,0,0,152.72,117Z" transform="translate(-94.64 -73.18)"/><path class="cls-2" d="M164.07,127.6c0-2.46,1.13-3.92,3.29-3.92,2,0,2.94,1.4,2.94,3.92v9.15h5.37v-11c0-4.67-2.65-6.93-6.34-6.93a6.09,6.09,0,0,0-5.26,2.88v-2.35h-5.18v17.44h5.18Z" transform="translate(-94.64 -73.18)"/><polygon class="cls-3" points="102.19 0 105.76 6.53 112.29 10.1 105.76 13.67 102.19 20.2 98.62 13.67 92.09 10.1 98.62 6.53 102.19 0"/><polygon class="cls-1" points="251.15 176.93 253.83 181.83 258.73 184.51 253.83 187.19 251.15 192.09 248.47 187.19 243.58 184.51 248.47 181.83 251.15 176.93"/><polygon class="cls-4" points="258.73 152.75 259.94 154.96 262.15 156.17 259.94 157.38 258.73 159.59 257.52 157.38 255.31 156.17 257.52 154.96 258.73 152.75"/><polygon class="cls-4" points="76.68 2.46 77.89 4.67 80.1 5.88 77.89 7.08 76.68 9.29 75.47 7.08 73.26 5.88 75.47 4.67 76.68 2.46"/><path class="cls-4" d="M110.73,280.94a7.93,7.93,0,0,0,4.61-7.37,7.42,7.42,0,1,0-14.81.12,7.9,7.9,0,0,0,4.81,7.32c-11.37,1.86-10.7,14.24-10.7,14.24l27-.23S122.05,282.5,110.73,280.94Z" transform="translate(-94.64 -73.18)"/><path class="cls-1" d="M369.21,362.54a4.19,4.19,0,0,0-8.27.25,4.19,4.19,0,0,0-8.27-.18,5.67,5.67,0,0,0,1,4.09,16.83,16.83,0,0,0,3,3.12c1.51,1.34,2.9,2.6,4.4,3.94,1.5-1.35,2.77-2.62,4.26-4a16.2,16.2,0,0,0,2.93-3.15A5.62,5.62,0,0,0,369.21,362.54Z" transform="translate(-94.64 -73.18)"/><path class="cls-4" d="M386.76,202.05l2.89-.57,4.56-10-1.14-5.77s4.41-1.16,5.38,6.5,1.16,5.61,1.16,5.61,9.48-1.84,10.43-1.17c.7.48,2.82,9.84,3.93,14.93a5.64,5.64,0,0,1-2.81,6.35,4.12,4.12,0,0,1-1,.33c-2.37.47-14.82,1-14.82,1l-5,1Z" transform="translate(-94.64 -73.18)"/><polygon class="cls-4" points="283.55 128.93 289.24 148.33 294.19 147.35 290.35 127.99 283.55 128.93"/></g><g id="icons_colored" data-name="icons colored"><path class="cls-5" d="M358,194.77h0a30.94,30.94,0,0,1-41.35-14.29h0A30.92,30.92,0,0,1,331,139.13h0a30.92,30.92,0,0,1,41.34,14.29h0A30.93,30.93,0,0,1,358,194.77Z" transform="translate(-94.64 -73.18)"/><path class="cls-2" d="M336.83,173.86a.72.72,0,0,0,.72-.93c-.08-.38-.28-1.32-.35-1.72s-.24-.68-.79-.92a6.08,6.08,0,0,1-3.06-3.11,10,10,0,0,1,4.92-13.64c5.1-2.48,9.41-.72,11.43,3.43,2.66,5.48,2.49,11.27-1.11,13a3.26,3.26,0,0,1-4.77-2.2c-.6-2.68-.76-5.81-1.6-7.55-.76-1.55-2.22-2.44-3.94-1.6-2,1-2.64,3.88-1.28,6.69a8.11,8.11,0,0,0,2.07,2.71s2.2,9.81,2.59,11.53a23.77,23.77,0,0,0,3.45,7.24.28.28,0,0,0,.5-.11,22.44,22.44,0,0,0,.41-7.88c-.18-1-1.2-5.87-1.2-5.87a6,6,0,0,0,5.78.11c6.1-3,7.54-10.54,3.92-18-2.74-5.63-10.06-8.55-17.3-5-9,4.39-10.42,13.06-7.8,18.45C331,171.77,333.65,174.07,336.83,173.86Z" transform="translate(-94.64 -73.18)"/><path class="cls-6" d="M388.9,282h0a21.32,21.32,0,0,1-12.31-27.54h0a21.33,21.33,0,0,1,27.54-12.32h0a21.35,21.35,0,0,1,12.32,27.55h0A21.34,21.34,0,0,1,388.9,282Z" transform="translate(-94.64 -73.18)"/><path class="cls-7" d="M407.66,265.71a11.49,11.49,0,0,0-21.38-8.39c-.07.16-.13.31-.19.47a11.21,11.21,0,0,0-.56,6.09l-4.12,5,6.66.38a11.58,11.58,0,0,0,4.68,3.31A11.45,11.45,0,0,0,407.56,266C407.59,265.9,407.63,265.81,407.66,265.71Zm-14.26,5.13a9.62,9.62,0,0,1-4.4-3.38l-3.89-.22,2.4-2.89a9.46,9.46,0,0,1,.29-5.91,8.13,8.13,0,0,1,.38-.85,9.66,9.66,0,0,1,17.9,7,5.88,5.88,0,0,1-.23.71A9.64,9.64,0,0,1,393.4,270.84Z" transform="translate(-94.64 -73.18)"/><path class="cls-7" d="M400.92,265.92c-.22-.24-1.27-1.36-1.47-1.54s-.37-.29-.65-.1-1,.59-1.22.71-.38.07-.6-.16a7.69,7.69,0,0,1-1.62-2.1,8.54,8.54,0,0,1-.77-2.37c0-.31.14-.4.32-.48l.57-.31.14-.09a2.05,2.05,0,0,0,.29-.25.48.48,0,0,0,.15-.46c0-.16-.05-1.65-.07-2.25s-.27-.6-.43-.66l-.49-.22a1,1,0,0,0-.83.06,3.12,3.12,0,0,0-1.75,1.83,3.37,3.37,0,0,0-.21.94,6.5,6.5,0,0,0,.25,2.17,11.65,11.65,0,0,0,3,5.66c2.28,2.06,2.41,1.72,2.91,1.86a2.83,2.83,0,0,0,2.25-.57,2.34,2.34,0,0,0,.63-1.18C401.28,266.28,401.13,266.15,400.92,265.92Z" transform="translate(-94.64 -73.18)"/><path class="cls-8" d="M111.47,183.41h0A16.27,16.27,0,0,1,95.2,167.14h0a16.27,16.27,0,0,1,16.27-16.26h0a16.26,16.26,0,0,1,16.27,16.26h0A16.26,16.26,0,0,1,111.47,183.41Z" transform="translate(-94.64 -73.18)"/><path class="cls-2" d="M102.8,172.59a10.12,10.12,0,0,0,15.57-9,7.37,7.37,0,0,0,1.77-1.84,7.34,7.34,0,0,1-2,.56,3.56,3.56,0,0,0,1.56-2,7.1,7.1,0,0,1-2.26.86,3.56,3.56,0,0,0-6.06,3.25,10.13,10.13,0,0,1-7.33-3.72,3.57,3.57,0,0,0,1.1,4.75,3.53,3.53,0,0,1-1.61-.45,3.57,3.57,0,0,0,2.85,3.54,3.72,3.72,0,0,1-1.6.06,3.56,3.56,0,0,0,3.32,2.47A7.17,7.17,0,0,1,102.8,172.59Z" transform="translate(-94.64 -73.18)"/><path class="cls-5" d="M140.71,365.67h0A28,28,0,0,1,107,344.9h0a28,28,0,0,1,20.76-33.75h0a28,28,0,0,1,33.75,20.76h0A28,28,0,0,1,140.71,365.67Z" transform="translate(-94.64 -73.18)"/><path class="cls-2" d="M131.3,326.15c4-.95,4.46-1,6.06-1.35a8.45,8.45,0,0,1,2.9-.14,4.8,4.8,0,0,1,2,.7,4.74,4.74,0,0,1,1.53,1.46,8.35,8.35,0,0,1,1.17,2.65c.45,1.56.58,2,1.53,6s1.05,4.47,1.35,6.06a8.54,8.54,0,0,1,.15,2.9,5.12,5.12,0,0,1-2.16,3.51,8.44,8.44,0,0,1-2.66,1.17c-1.55.45-2,.58-6,1.53s-4.47,1-6.06,1.35a8.54,8.54,0,0,1-2.9.15,4.86,4.86,0,0,1-2-.71,4.78,4.78,0,0,1-1.52-1.45,8.39,8.39,0,0,1-1.18-2.66c-.45-1.55-.58-2-1.53-6s-1-4.47-1.35-6.06a8.46,8.46,0,0,1-.14-2.9,4.84,4.84,0,0,1,.7-2,4.71,4.71,0,0,1,1.46-1.52,8.3,8.3,0,0,1,2.65-1.18c1.56-.45,2-.58,6-1.53m-.64-2.69c-4.06,1-4.57,1.11-6.14,1.56a11.21,11.21,0,0,0-3.47,1.56,7.41,7.41,0,0,0-2.23,2.35,7.51,7.51,0,0,0-1.1,3.06,11.5,11.5,0,0,0,.17,3.79c.31,1.62.41,2.13,1.38,6.19s1.11,4.56,1.56,6.14a11.14,11.14,0,0,0,1.56,3.46,7.54,7.54,0,0,0,2.35,2.24,7.64,7.64,0,0,0,3.06,1.09,11.24,11.24,0,0,0,3.79-.17c1.62-.31,2.13-.41,6.19-1.38s4.56-1.1,6.14-1.56a11.39,11.39,0,0,0,3.46-1.55,7.69,7.69,0,0,0,2.24-2.36,7.58,7.58,0,0,0,1.09-3.06,11.24,11.24,0,0,0-.17-3.79c-.31-1.61-.41-2.12-1.38-6.18s-1.1-4.57-1.56-6.14a11.46,11.46,0,0,0-1.55-3.47,7.55,7.55,0,0,0-2.36-2.23,7.46,7.46,0,0,0-3.06-1.1,11.51,11.51,0,0,0-3.79.17c-1.61.31-2.12.41-6.18,1.38" transform="translate(-94.64 -73.18)"/><path class="cls-2" d="M132.39,330.73a7.89,7.89,0,1,0,9.5,5.85,7.9,7.9,0,0,0-9.5-5.85m3,12.66a5.12,5.12,0,1,1,3.8-6.17,5.13,5.13,0,0,1-3.8,6.17" transform="translate(-94.64 -73.18)"/><path class="cls-2" d="M142.09,328.1a1.85,1.85,0,1,1-2.22-1.37,1.85,1.85,0,0,1,2.22,1.37" transform="translate(-94.64 -73.18)"/><path class="cls-8" d="M353,341h0a13.07,13.07,0,0,1-13.07-13.06h0A13.07,13.07,0,0,1,353,314.87h0A13.07,13.07,0,0,1,366,327.94h0A13.07,13.07,0,0,1,353,341Z" transform="translate(-94.64 -73.18)"/><path class="cls-2" d="M351,335.83h3.18v-8h2.22l.24-2.67h-2.46v-1.52c0-.63.13-.88.73-.88h1.73V320H354.4c-2.36,0-3.43,1-3.43,3v2.13h-1.66v2.7H351Z" transform="translate(-94.64 -73.18)"/></g><g id="Device"><path class="cls-9" d="M308,412.87l-105-.06a22.87,22.87,0,0,1-22.85-22.87l.05-263.2a22.86,22.86,0,0,1,22.88-22.86l105,.06A22.88,22.88,0,0,1,331,126.81l0,263.2A22.86,22.86,0,0,1,308,412.87Z" transform="translate(-94.64 -73.18)"/><path class="cls-2" d="M308,113.25H287.64a5.05,5.05,0,0,0-4.94,5.16v3.69a5.05,5.05,0,0,1-4.94,5.17l-39.67,0a5.06,5.06,0,0,1-5-5.16v-3.7a5.07,5.07,0,0,0-4.95-5.17h-25a16,16,0,0,0-16,16l-.06,256.9a16,16,0,0,0,16,16l104.77.06a16,16,0,0,0,16-16l.05-256.9A16,16,0,0,0,308,113.25Z" transform="translate(-94.64 -73.18)"/><path class="cls-9" d="M309.53,134.12c0,.07-2.65.15-5.92.17s-5.91,0-5.91-.07,2.65-.15,5.91-.18S309.53,134.05,309.53,134.12Z" transform="translate(-94.64 -73.18)"/><path class="cls-9" d="M309.55,137.15c0,.06-2.65.14-5.91.17s-5.91,0-5.91-.08,2.64-.14,5.91-.17S309.55,137.08,309.55,137.15Z" transform="translate(-94.64 -73.18)"/><path class="cls-9" d="M309.58,140.17c0,.07-2.65.15-5.92.17s-5.91,0-5.91-.07,2.65-.15,5.91-.17S309.58,140.1,309.58,140.17Z" transform="translate(-94.64 -73.18)"/><path class="cls-9" d="M198.2,143.12l.31,0,.86,0,3.18-.07-.09.09q0-1.07,0-2.31c0-.43,0-.83,0-1.33a1.23,1.23,0,0,1,1.07-1c.51,0,1,0,1.52,0a1.23,1.23,0,0,1,1,1.23c0,1.08,0,2.2,0,3.37l-.15-.15,4,0-.16.16c0-1.62,0-3.29,0-5,0-.42,0-.85,0-1.27a1.3,1.3,0,0,0-.57-.95l-1.75-1.73-1.69-1.67-.82-.81c-.29-.27-.51-.55-.83-.62a1.07,1.07,0,0,0-.92.18,10.25,10.25,0,0,0-.75.73L201,133.34c-.91.94-1.85,1.8-2.54,2.61a2.83,2.83,0,0,0-.2,1.5v1.41c0,.87,0,1.63,0,2.28s0,1.06,0,1.46,0,.51,0,.52a2.76,2.76,0,0,1,0-.48c0-.39,0-.86,0-1.43s0-1.43,0-2.3q0-.69,0-1.44c0-.26,0-.52,0-.79a1.67,1.67,0,0,1,.22-.84c.74-.91,1.63-1.72,2.54-2.69l1.43-1.46c.26-.25.47-.51.78-.77a1.37,1.37,0,0,1,1.16-.23,2.17,2.17,0,0,1,1,.69l.83.81,1.7,1.66,1.75,1.73a3,3,0,0,1,.45.48,1.27,1.27,0,0,1,.21.68c0,.43,0,.85,0,1.28,0,1.71,0,3.39,0,5v.16H210l-4,0h-.15v-.15c0-1.17,0-2.29,0-3.37a1,1,0,0,0-.81-1c-.46,0-1,0-1.46,0a1,1,0,0,0-.86.79c0,.4,0,.87,0,1.28v2.4h-.09l-3.23,0h-.84A1.32,1.32,0,0,1,198.2,143.12Z" transform="translate(-94.64 -73.18)"/><path class="cls-10" d="M267.45,343.86a5.09,5.09,0,0,1-1.1.08l-3,.06c-2.53,0-6,.06-9.89.06s-7.37,0-9.9-.06l-3-.06a5.09,5.09,0,0,1-1.1-.08,6.06,6.06,0,0,1,1.1-.08l3-.06c2.53,0,6-.06,9.9-.06s7.36,0,9.89.06l3,.06A6.06,6.06,0,0,1,267.45,343.86Z" transform="translate(-94.64 -73.18)"/><path class="cls-10" d="M311.45,350.75c0,.11-16.12.2-36,.2s-36-.09-36-.2,16.11-.2,36-.2S311.45,350.64,311.45,350.75Z" transform="translate(-94.64 -73.18)"/><path class="cls-10" d="M289,357.23c0,.11-11.08.2-24.74.2s-24.75-.09-24.75-.2,11.08-.2,24.75-.2S289,357.12,289,357.23Z" transform="translate(-94.64 -73.18)"/><path class="cls-9" d="M312.88,369.84l-2.24-2.24-2.13,2.12V363.3h4.37Zm-2.24-2.52.07.07,2,2V363.5h-4v5.74Z" transform="translate(-94.64 -73.18)"/><path class="cls-9" d="M253.31,369l-.79-.35a2.12,2.12,0,0,1-1,.31,2.21,2.21,0,1,1,1.63-.75Zm-1.84-4.27a2,2,0,1,0,0,4.08,2,2,0,0,0,1-.31l0,0,.58.26-.13-.57,0,0a2,2,0,0,0-1.52-3.41Z" transform="translate(-94.64 -73.18)"/><path class="cls-9" d="M258.39,368.67l-.91-2.21-1.69-1.55,4.11,0Zm-2.22-3.61,1.45,1.32.77,1.89,1.29-3.24Z" transform="translate(-94.64 -73.18)"/><rect class="cls-9" x="257.4" y="365.6" width="2.68" height="0.15" transform="translate(-252.21 127.13) rotate(-33.05)"/><path class="cls-5" d="M246.84,365.37a1.27,1.27,0,0,0-2.51.09,1.27,1.27,0,0,0-2.51,0,1.72,1.72,0,0,0,.31,1.24,5.05,5.05,0,0,0,.9,1l1.34,1.19c.45-.42.84-.8,1.29-1.21a5.31,5.31,0,0,0,.88-1A1.75,1.75,0,0,0,246.84,365.37Z" transform="translate(-94.64 -73.18)"/><path class="cls-9" d="M317.46,375.52s0-.25,0-.72,0-1.17,0-2.08c0-1.84,0-4.54,0-8,0-7,0-17.18-.07-29.95l.13.13-121.75.07h0l.2-.2c0,14.18,0,27.93,0,40.79l-.19-.19,87.12.09,25.44.05,6.82,0h.05l-6.78,0-25.39.05-87.26.09h-.19v-.19c0-12.86,0-26.61,0-40.79v-.19h.21l121.75.06h.13v.13c0,12.81,0,23-.07,30,0,3.49,0,6.18,0,8,0,.9,0,1.59,0,2.06S317.46,375.52,317.46,375.52Z" transform="translate(-94.64 -73.18)"/><rect class="cls-1" x="204.07" y="338.26" width="26.96" height="33.73" transform="translate(-233.45 497.47) rotate(-89.67)"/><path class="cls-9" d="M234.49,341.74h-9.4l-24.33,0,.18-.18c0,8-.09,17.23-.13,27,0,.05-.37-.37-.19-.19h4.63l4.54,0,8.75.06,15.8.11-.17.16c.08-8.09.15-14.81.2-19.53,0-2.34,0-4.19.07-5.47,0-.62,0-1.1,0-1.45s0-.51,0-.51,0,.16,0,.47,0,.82,0,1.42c0,1.28,0,3.11,0,5.44,0,4.74,0,11.5,0,19.64v.16h-.17l-15.79-.07-8.75,0-4.55,0-2.31,0h-2.32l-.2-.2c.06-9.74.12-18.93.17-27v-.18h.18l24.44.23,6.88.09,1.8,0h.61Z" transform="translate(-94.64 -73.18)"/><rect class="cls-4" x="205.74" y="339.45" width="23.57" height="31.36" transform="translate(-233.47 497.45) rotate(-89.67)"/><polygon class="cls-3" points="107.14 293.64 118.18 279.06 124.91 288.26 129.54 283.38 138.5 293.82 107.14 293.64"/><path class="cls-3" d="M222.49,350.49A2.47,2.47,0,1,1,220,348,2.47,2.47,0,0,1,222.49,350.49Z" transform="translate(-94.64 -73.18)"/><path class="cls-9" d="M257.64,166.82a2.19,2.19,0,0,1-.36,0l-1,0-3.8.07c-3.2,0-7.63.06-12.53.06s-9.32,0-12.53-.06l-3.8-.07-1,0a2,2,0,0,1-.36,0s.12,0,.36,0l1,0,3.8-.06c3.21,0,7.64-.06,12.53-.06s9.33,0,12.53.06l3.8.06,1,0C257.51,166.79,257.64,166.8,257.64,166.82Z" transform="translate(-94.64 -73.18)"/><path class="cls-9" d="M307.46,315.88l-3.32-3.34L301,315.7v-9.54h6.49Zm-3.32-3.75.11.1,2.92,2.94,0-8.71h-5.91V315Z" transform="translate(-94.64 -73.18)"/><path class="cls-9" d="M223.06,314.87l-1.55-.69a4.25,4.25,0,0,1-2,.61,4.32,4.32,0,1,1,4.29-4.35,4.36,4.36,0,0,1-1.08,2.88Zm-3.63-8.41a4,4,0,1,0,.06,8,4.31,4.31,0,0,0,1.94-.61l.06,0,1.15.51-.26-1.12.05-.06a4,4,0,0,0,1-2.73A4,4,0,0,0,219.43,306.46Z" transform="translate(-94.64 -73.18)"/><path class="cls-9" d="M233.05,314.21l-1.78-4.35-3.34-3,8.1-.07Zm-4.37-7.1,2.85,2.61,1.52,3.7,2.54-6.37Z" transform="translate(-94.64 -73.18)"/><rect class="cls-9" x="231.1" y="308.17" width="5.27" height="0.3" transform="translate(-224.96 104.17) rotate(-33.05)"/><path class="cls-5" d="M210.31,307.73a2.5,2.5,0,0,0-4.94.16,2.5,2.5,0,0,0-4.94-.08,3.38,3.38,0,0,0,.62,2.43,9.76,9.76,0,0,0,1.77,1.86l2.64,2.35c.89-.81,1.64-1.58,2.53-2.39a9.8,9.8,0,0,0,1.75-1.89A3.39,3.39,0,0,0,210.31,307.73Z" transform="translate(-94.64 -73.18)"/><circle class="cls-1" cx="114.94" cy="93.64" r="5.49"/><path class="cls-10" d="M305.39,284.36c0,.11-23,.2-51.45.2s-51.46-.09-51.46-.2,23-.2,51.46-.2S305.39,284.25,305.39,284.36Z" transform="translate(-94.64 -73.18)"/><path class="cls-10" d="M305.39,275.79c0,.11-23,.2-51.45.2s-51.46-.09-51.46-.2,23-.2,51.46-.2S305.39,275.68,305.39,275.79Z" transform="translate(-94.64 -73.18)"/><path class="cls-10" d="M258.49,293c0,.11-12.54.2-28,.2s-28-.09-28-.2,12.54-.19,28-.19S258.49,292.93,258.49,293Z" transform="translate(-94.64 -73.18)"/><path class="cls-9" d="M251.58,386.41a2.19,2.19,0,1,1-2.18-2.23A2.21,2.21,0,0,1,251.58,386.41Z" transform="translate(-94.64 -73.18)"/><path class="cls-9" d="M258.36,386.44a2.19,2.19,0,1,1-2.18-2.23A2.21,2.21,0,0,1,258.36,386.44Z" transform="translate(-94.64 -73.18)"/><path class="cls-9" d="M265.13,386.47a2.19,2.19,0,1,1-2.18-2.23A2.19,2.19,0,0,1,265.13,386.47Z" transform="translate(-94.64 -73.18)"/><rect class="cls-4" x="101.79" y="104.51" width="121.76" height="74.46"/><polygon class="cls-3" points="113.03 178.99 147.92 132.29 169.55 161.49 184.21 145.87 212.97 178.96 113.03 178.99"/><path class="cls-3" d="M273.36,199.74a7.87,7.87,0,1,1-7.87-7.87A7.87,7.87,0,0,1,273.36,199.74Z" transform="translate(-94.64 -73.18)"/><path class="cls-9" d="M317.86,321.36c0-1.59-.07-68.86-.18-168.44l.18.18H196.1l.2-.19c0,63,0,121.29,0,168.44l-.16-.16,121.76.16-121.76.16h-.16v-.16c0-47.15,0-105.45,0-168.44v-.2h.21l121.75,0H318v.18c0,49.84-.06,92-.09,121.64,0,14.82,0,26.52,0,34.53,0,4,0,7.06,0,9.14,0,1,0,1.81,0,2.34S317.86,321.36,317.86,321.36Z" transform="translate(-94.64 -73.18)"/></g><g id="Megaphone"><path class="cls-11" d="M260.65,342.26l2.69-9.05c.47-2,1.1-4.28,1.94-6.92a18.66,18.66,0,0,1,4.45-6.67c2.75-2.8,4.06-2.82,5.91-4.3.17-.11.36-.26.51-.35a2.76,2.76,0,0,0,.9-.78c1.6-1.72.07-4.39-3.17-4.13-2.43.19-6.4.89-12.86,7.55-.08.1-.17.18-.25.29-3.39,4.4-6.57-8.17-7.14-12.85a4.91,4.91,0,0,0-6.63-3.81l-15.73,7.36a7.38,7.38,0,0,0-4.6.15,4.68,4.68,0,0,0-3,5.55l6.38,25.47-18.74,62.35h40.39Z" transform="translate(-94.64 -73.18)"/><path class="cls-5" d="M291.68,285l-12.49,24.47L273,307.72l-31.38,25.53a6.36,6.36,0,0,1-8.83-.79l-12-13.88s24.09-10.38,28.55-19-.7-10.54-.7-10.54L260,276.19Z" transform="translate(-94.64 -73.18)"/><path class="cls-5" d="M275.48,235s-18.27-4-44-28.77-37.8-57.57-41-57.41-16.89-6.22-43,50.64-15.84,70.08-10.64,70,40.52-9.95,62.59-7.44,50.42,14,50.42,14Z" transform="translate(-94.64 -73.18)"/><path class="cls-5" d="M314.31,266l-6.24,11.85-2.79,5.32A15.48,15.48,0,0,1,285.11,290l-39.17-13.65,22.81-52.08,39.14,20.85A15.48,15.48,0,0,1,314.31,266Z" transform="translate(-94.64 -73.18)"/><g class="cls-12"><path d="M314.31,266l-6.24,11.85-2.79,5.32A15.48,15.48,0,0,1,285.11,290l-39.17-13.65,22.81-52.08,39.14,20.85A15.48,15.48,0,0,1,314.31,266Z" transform="translate(-94.64 -73.18)"/></g><path class="cls-5" d="M149.62,200.51c-13.92,30.8-19.71,58.26-12.94,61.31s23.53-19.44,37.45-50.24,19.7-58.26,12.93-61.31S163.53,169.7,149.62,200.51Z" transform="translate(-94.64 -73.18)"/><g class="cls-13"><path d="M149.62,200.51c-13.92,30.8-19.71,58.26-12.94,61.31s23.53-19.44,37.45-50.24,19.7-58.26,12.93-61.31S163.53,169.7,149.62,200.51Z" transform="translate(-94.64 -73.18)"/></g><polygon class="cls-5" points="223.03 209.96 212.41 206.63 218.99 194.13 226.95 199.08 223.03 209.96"/><g class="cls-14"><polygon points="218.99 194.13 212.41 206.63 214.6 207.31 219.94 194.72 218.99 194.13"/></g><path class="cls-5" d="M306.31,270.19c-.16.35-5.46-1.71-11.84-4.6s-11.43-5.5-11.27-5.84,5.45,1.72,11.83,4.6S306.46,269.85,306.31,270.19Z" transform="translate(-94.64 -73.18)"/><path class="cls-5" d="M309.57,262.75c-.17.34-5-1.68-10.71-4.51s-10.27-5.4-10.11-5.74,5,1.69,10.71,4.52S309.74,262.42,309.57,262.75Z" transform="translate(-94.64 -73.18)"/><path class="cls-5" d="M302.19,278c-.06.18-1.32-.11-3.33-.73-1-.31-2.2-.71-3.52-1.16s-2.66-1.16-4.12-1.82c-5.81-2.7-10.24-5.34-10.1-5.65s4.91,1.74,10.67,4.41c1.44.65,2.78,1.37,4,1.9s2.41,1,3.36,1.41C301.09,277.2,302.24,277.82,302.19,278Z" transform="translate(-94.64 -73.18)"/><path class="cls-5" d="M178,193.66s-15.88-9.85-24.58,11.61,8,25,8,25A143.09,143.09,0,0,0,178,193.66Z" transform="translate(-94.64 -73.18)"/><g class="cls-13"><path d="M194.87,168.08a22.7,22.7,0,0,1-.62,4.1c-.5,2.62-1.21,6.43-2.23,11.11-.67,2.3-1.41,4.81-2.19,7.51L188.59,195c-.21.72-.43,1.45-.65,2.19s-.54,1.45-.82,2.19c-1.14,2.95-2.34,6-3.59,9.26l-.94,2.43c-.31.82-.75,1.59-1.12,2.39-.78,1.61-1.56,3.23-2.36,4.87l-2.37,4.87c-.4.79-.74,1.61-1.19,2.36l-1.33,2.25-5.06,8.54c-.41.68-.79,1.37-1.21,2l-1.33,1.86c-.86,1.23-1.71,2.41-2.52,3.56l-4.56,6.38c-3,3.68-5.58,6.58-7.33,8.6a24.51,24.51,0,0,1-2.84,3,22.91,22.91,0,0,1,2.43-3.36c1.69-2.15,4.07-5.17,7-8.87l4.38-6.43,2.45-3.57,1.28-1.86c.42-.64.78-1.33,1.19-2l5-8.53,1.3-2.24c.45-.74.78-1.56,1.18-2.35l2.34-4.83c.8-1.63,1.58-3.25,2.35-4.83.38-.8.81-1.57,1.12-2.38s.64-1.61,1-2.41l3.64-9.17c.28-.73.6-1.44.84-2.17s.45-1.45.68-2.16l1.29-4.14,2.34-7.42c1.1-4.58,2-8.31,2.64-11A25.59,25.59,0,0,1,194.87,168.08Z" transform="translate(-94.64 -73.18)"/></g><g class="cls-12"><path d="M224.6,316.87a30.89,30.89,0,0,0,5.07,7.41,10.45,10.45,0,0,0,8.08,3.29c3-.3,5.82-2.78,5.85-5.79,1.43,1.08,3.63.5,4.82-.85a8.38,8.38,0,0,0,1.71-5c2,1.15,4.66.24,6-1.61a7.69,7.69,0,0,0,.75-6.51,22.68,22.68,0,0,0-3.13-6,8.29,8.29,0,0,0,4.43-.46c1.35-.68,2.25-2.45,1.47-3.74a3.72,3.72,0,0,0-2.19-1.39c-2.35-.74-4-1.32-6.44-1-.57,0,1,6.45-14.38,15.27C227.54,315.67,224.6,316.87,224.6,316.87Z" transform="translate(-94.64 -73.18)"/></g><path class="cls-15" d="M259.18,326.19c0,.07-1-.12-2.69-.08a15.2,15.2,0,0,0-11.29,5.41c-1.07,1.26-1.56,2.18-1.62,2.15a2.69,2.69,0,0,1,.3-.67,13.51,13.51,0,0,1,1.11-1.66,14.44,14.44,0,0,1,5.1-4.1,14.63,14.63,0,0,1,6.4-1.41,11.35,11.35,0,0,1,2,.18A2.55,2.55,0,0,1,259.18,326.19Z" transform="translate(-94.64 -73.18)"/><path class="cls-11" d="M225.6,312.79c2.47,2.37,4.16,5,6.76,7.39,1.18,1.09,3,3.15,4.59,3.42s2.59.06,3.22-1.41c.5-1.2-.41-2.83-1-3.82-1.66-2.59-3.24-4.62-4.48-6.64-.57-.94.18-1.14.45-.7,1.19,1.24,3,2.31,4,3.65,1.46,1.84,1.73,4.28,5.55,3.51a3.64,3.64,0,0,0,1.42-.59,3.81,3.81,0,0,0,.89-4.55,12.43,12.43,0,0,0-2.13-3.22c1.63,1.84,3.41,3.77,6,4a3.57,3.57,0,0,0,3.62-2c.77-1.74-.33-3.42-1.43-4.78a50.2,50.2,0,0,0-6.49-6.63,5,5,0,0,0-3.16-1.17c-1.34,0-3,.24-3.84,1.41a5.2,5.2,0,0,0-1,4s-3.35-1.71-6.05.07a8.58,8.58,0,0,0-3.36,4.84Z" transform="translate(-94.64 -73.18)"/><path class="cls-11" d="M243.45,298.53A4,4,0,0,1,243,294c.57-1.12,1.29-2.21,2-2.46,3.2-1.07,17.14,1.34,17,4.43s-1.15,4.58-8.71,3.49c-1.33-.2-3.42-.46-3.42-.46L248,301.74Z" transform="translate(-94.64 -73.18)"/><path class="cls-15" d="M246,311.49a25.58,25.58,0,0,0-3.34-4,25.09,25.09,0,0,0-4.35-2.93,4.68,4.68,0,0,1,1.48.52,13.36,13.36,0,0,1,5.54,5A4.58,4.58,0,0,1,246,311.49Z" transform="translate(-94.64 -73.18)"/><path class="cls-15" d="M248.29,302c-.07.07-1-.69-2.24-1.45a16.79,16.79,0,0,0-1.64-.91c-.43-.2-.72-.25-.72-.31s.33-.09.82.05a7.67,7.67,0,0,1,1.75.83A5.51,5.51,0,0,1,248.29,302Z" transform="translate(-94.64 -73.18)"/><path class="cls-15" d="M250.63,299.1a5.89,5.89,0,0,1-2.68-.3,4.84,4.84,0,0,1-1.72-.9c-.38-.32-.54-.6-.51-.63a11.29,11.29,0,0,0,2.34,1.15A19.81,19.81,0,0,1,250.63,299.1Z" transform="translate(-94.64 -73.18)"/><path class="cls-15" d="M237.08,315.32a10.21,10.21,0,0,1-1.27-1.65,15.08,15.08,0,0,0-3.25-3.7,6.58,6.58,0,0,0-4.61-1.22,8.59,8.59,0,0,0-1.94.61s.13-.15.44-.35a4.5,4.5,0,0,1,1.45-.54,6.47,6.47,0,0,1,4.89,1.18,13.23,13.23,0,0,1,3.26,3.86A11.79,11.79,0,0,1,237.08,315.32Z" transform="translate(-94.64 -73.18)"/><path class="cls-15" d="M247.75,346.15a41,41,0,0,1-5.7.82,41,41,0,0,1-5.74.43,41,41,0,0,1,5.7-.82A45.05,45.05,0,0,1,247.75,346.15Z" transform="translate(-94.64 -73.18)"/></g><g id="Stars"><polygon class="cls-5" points="273.05 19.76 273.91 21.34 275.48 22.19 273.91 23.05 273.05 24.63 272.19 23.05 270.62 22.19 272.19 21.34 273.05 19.76"/><polygon class="cls-5" points="291.02 58.72 291.88 60.29 293.45 61.15 291.88 62.01 291.02 63.59 290.16 62.01 288.59 61.15 290.16 60.29 291.02 58.72"/><polygon class="cls-5" points="2.97 162.66 3.83 164.24 5.4 165.09 3.83 165.96 2.97 167.53 2.11 165.96 0.54 165.09 2.11 164.24 2.97 162.66"/><polygon class="cls-5" points="249.47 29.45 251.46 33.08 255.09 35.06 251.46 37.05 249.47 40.67 247.49 37.05 243.86 35.06 247.49 33.08 249.47 29.45"/><polygon class="cls-5" points="19.08 137.97 21.06 141.59 24.68 143.57 21.06 145.55 19.08 149.17 17.1 145.55 13.48 143.57 17.1 141.59 19.08 137.97"/><polygon class="cls-5" points="295.91 224.36 297.89 227.98 301.51 229.96 297.89 231.94 295.91 235.56 293.93 231.94 290.31 229.96 293.93 227.98 295.91 224.36"/></g></svg>