<svg xmlns="http://www.w3.org/2000/svg" xmlns:xlink="http://www.w3.org/1999/xlink" viewBox="0 0 600 413.22"><defs><style>.cls-1{fill:none;}.cls-2{isolation:isolate;}.cls-3{clip-path:url(#clip-path);}.cls-4{fill:#fff;}.cls-5{fill:#f1f1f4;}.cls-6{fill:#dbdfff;}.cls-7{fill:url(#Áåçûìÿííûé_ãðàäèåíò_29);}.cls-8{fill:url(#Áåçûìÿííûé_ãðàäèåíò_28);}.cls-9{fill:#e5e2ff;}.cls-10{fill:url(#Áåçûìÿííûé_ãðàäèåíò_28-2);}.cls-11,.cls-12{opacity:0.62;}.cls-11,.cls-115,.cls-12,.cls-18,.cls-19,.cls-20,.cls-25,.cls-28,.cls-30,.cls-33,.cls-36,.cls-38,.cls-41,.cls-42,.cls-43,.cls-44,.cls-45,.cls-46,.cls-47,.cls-48,.cls-49,.cls-50,.cls-51,.cls-52,.cls-53,.cls-54,.cls-55,.cls-56,.cls-57,.cls-58,.cls-59,.cls-60,.cls-61,.cls-62,.cls-66,.cls-78,.cls-81,.cls-82,.cls-83,.cls-85,.cls-86,.cls-91,.cls-92,.cls-93,.cls-94,.cls-95,.cls-96{mix-blend-mode:multiply;}.cls-11{fill:url(#Áåçûìÿííûé_ãðàäèåíò_27);}.cls-12{fill:url(#Áåçûìÿííûé_ãðàäèåíò_94);}.cls-115,.cls-13,.cls-15,.cls-16,.cls-36,.cls-38,.cls-41,.cls-42,.cls-43,.cls-44,.cls-45,.cls-46,.cls-47,.cls-48,.cls-49,.cls-51,.cls-53,.cls-54,.cls-55,.cls-56,.cls-57,.cls-59,.cls-60,.cls-61,.cls-62,.cls-83{opacity:0.5;}.cls-13,.cls-15,.cls-16{mix-blend-mode:screen;}.cls-13{fill:url(#Áåçûìÿííûé_ãðàäèåíò_95);}.cls-14{fill:url(#Áåçûìÿííûé_ãðàäèåíò_239);}.cls-15{fill:url(#Áåçûìÿííûé_ãðàäèåíò_83);}.cls-16{fill:url(#Áåçûìÿííûé_ãðàäèåíò_83-2);}.cls-17{fill:#6130a1;}.cls-18,.cls-19,.cls-20,.cls-50{opacity:0.76;}.cls-18{fill:url(#Áåçûìÿííûé_ãðàäèåíò_70);}.cls-19{fill:url(#Áåçûìÿííûé_ãðàäèåíò_70-2);}.cls-20{fill:url(#Áåçûìÿííûé_ãðàäèåíò_70-3);}.cls-21{fill:#fe9083;}.cls-22{fill:#cb4d7a;}.cls-23{fill:#ee8183;}.cls-24{fill:url(#Áåçûìÿííûé_ãðàäèåíò_71);}.cls-25,.cls-30,.cls-66,.cls-78,.cls-81,.cls-82,.cls-89,.cls-91{opacity:0.6;}.cls-25{fill:url(#Áåçûìÿííûé_ãðàäèåíò_48);}.cls-26{fill:url(#Áåçûìÿííûé_ãðàäèåíò_71-2);}.cls-27{fill:#e28183;}.cls-28,.cls-33{opacity:0.91;}.cls-28{fill:url(#Áåçûìÿííûé_ãðàäèåíò_73);}.cls-29{fill:url(#Áåçûìÿííûé_ãðàäèåíò_71-3);}.cls-30{fill:url(#Áåçûìÿííûé_ãðàäèåíò_48-2);}.cls-31{fill:url(#Áåçûìÿííûé_ãðàäèåíò_64);}.cls-32{fill:url(#Áåçûìÿííûé_ãðàäèåíò_64-2);}.cls-33{fill:url(#Áåçûìÿííûé_ãðàäèåíò_73-2);}.cls-34{fill:#ffbcaf;}.cls-35{fill:url(#Áåçûìÿííûé_ãðàäèåíò_9);}.cls-36{fill:url(#Áåçûìÿííûé_ãðàäèåíò_2);}.cls-37{fill:url(#Áåçûìÿííûé_ãðàäèåíò_8);}.cls-38{fill:url(#Áåçûìÿííûé_ãðàäèåíò_2-2);}.cls-39{fill:url(#Áåçûìÿííûé_ãðàäèåíò_7);}.cls-40{fill:url(#Áåçûìÿííûé_ãðàäèåíò_6);}.cls-41{fill:url(#Áåçûìÿííûé_ãðàäèåíò_2-3);}.cls-42{fill:url(#Áåçûìÿííûé_ãðàäèåíò_2-4);}.cls-43{fill:url(#Áåçûìÿííûé_ãðàäèåíò_5);}.cls-44{fill:url(#Áåçûìÿííûé_ãðàäèåíò_5-2);}.cls-45{fill:url(#Áåçûìÿííûé_ãðàäèåíò_5-3);}.cls-46{fill:url(#Áåçûìÿííûé_ãðàäèåíò_5-4);}.cls-47{fill:url(#Áåçûìÿííûé_ãðàäèåíò_5-5);}.cls-48{fill:url(#Áåçûìÿííûé_ãðàäèåíò_5-6);}.cls-49{fill:url(#Áåçûìÿííûé_ãðàäèåíò_5-7);}.cls-50{fill:url(#Áåçûìÿííûé_ãðàäèåíò_2-5);}.cls-51{fill:url(#Áåçûìÿííûé_ãðàäèåíò_2-6);}.cls-52,.cls-58,.cls-92,.cls-93,.cls-94,.cls-95{opacity:0.3;}.cls-52{fill:url(#Áåçûìÿííûé_ãðàäèåíò_2-7);}.cls-53{fill:url(#Áåçûìÿííûé_ãðàäèåíò_5-8);}.cls-54{fill:url(#Áåçûìÿííûé_ãðàäèåíò_2-8);}.cls-55{fill:url(#Áåçûìÿííûé_ãðàäèåíò_5-9);}.cls-56{fill:url(#Áåçûìÿííûé_ãðàäèåíò_5-10);}.cls-57{fill:url(#Áåçûìÿííûé_ãðàäèåíò_2-9);}.cls-58{fill:url(#Áåçûìÿííûé_ãðàäèåíò_2-10);}.cls-59{fill:url(#Áåçûìÿííûé_ãðàäèåíò_2-11);}.cls-60{fill:url(#Áåçûìÿííûé_ãðàäèåíò_2-12);}.cls-61{fill:url(#Áåçûìÿííûé_ãðàäèåíò_2-13);}.cls-62{fill:#7a4ac0;}.cls-63{fill:url(#Áåçûìÿííûé_ãðàäèåíò_71-4);}.cls-64{fill:url(#Áåçûìÿííûé_ãðàäèåíò_71-5);}.cls-65{fill:url(#Áåçûìÿííûé_ãðàäèåíò_387);}.cls-66{fill:url(#Áåçûìÿííûé_ãðàäèåíò_48-3);}.cls-67{fill:url(#Áåçûìÿííûé_ãðàäèåíò_18);}.cls-68{fill:url(#Áåçûìÿííûé_ãðàäèåíò_18-2);}.cls-69{fill:url(#Áåçûìÿííûé_ãðàäèåíò_59);}.cls-70{fill:url(#Áåçûìÿííûé_ãðàäèåíò_184);}.cls-71{fill:#ffebed;}.cls-72{fill:#914343;}.cls-73{fill:#451414;}.cls-74{fill:#571d0f;}.cls-75{fill:#c6659c;}.cls-76{fill:#cb5f7d;}.cls-77{fill:#9f4a8b;}.cls-78{fill:url(#Áåçûìÿííûé_ãðàäèåíò_48-4);}.cls-79{fill:url(#Áåçûìÿííûé_ãðàäèåíò_18-3);}.cls-80{fill:#d2726c;}.cls-81{fill:url(#Áåçûìÿííûé_ãðàäèåíò_35);}.cls-82{fill:url(#Áåçûìÿííûé_ãðàäèåíò_52);}.cls-83{fill:url(#Áåçûìÿííûé_ãðàäèåíò_397);}.cls-84{fill:#b55b6d;}.cls-85,.cls-86{opacity:0.8;}.cls-85{fill:url(#Áåçûìÿííûé_ãðàäèåíò_285);}.cls-86{fill:url(#Áåçûìÿííûé_ãðàäèåíò_285-2);}.cls-87{fill:url(#Áåçûìÿííûé_ãðàäèåíò_10);}.cls-88{fill:url(#Áåçûìÿííûé_ãðàäèåíò_10-2);}.cls-89{fill:#d26df7;}.cls-90{fill:#9b4ca2;}.cls-91{fill:url(#Áåçûìÿííûé_ãðàäèåíò_89);}.cls-92{fill:url(#Áåçûìÿííûé_ãðàäèåíò_85);}.cls-93{fill:url(#Áåçûìÿííûé_ãðàäèåíò_85-2);}.cls-94{fill:url(#Áåçûìÿííûé_ãðàäèåíò_85-3);}.cls-95{fill:url(#Áåçûìÿííûé_ãðàäèåíò_85-4);}.cls-96{fill:#d1d4fb;}.cls-116,.cls-97{mix-blend-mode:soft-light;}.cls-98{fill:#e0ffff;}.cls-99{fill:url(#Áåçûìÿííûé_ãðàäèåíò_65);}.cls-100{fill:url(#Áåçûìÿííûé_ãðàäèåíò_14);}.cls-101{opacity:0.81;fill:url(#linear-gradient);}.cls-102{fill:#713da2;}.cls-103{fill:url(#Áåçûìÿííûé_ãðàäèåíò_302);}.cls-104{fill:url(#Áåçûìÿííûé_ãðàäèåíò_302-2);}.cls-105{fill:url(#Áåçûìÿííûé_ãðàäèåíò_322);}.cls-106{fill:url(#Áåçûìÿííûé_ãðàäèåíò_322-2);}.cls-107{fill:url(#Áåçûìÿííûé_ãðàäèåíò_25);}.cls-108{fill:url(#Áåçûìÿííûé_ãðàäèåíò_25-2);}.cls-109,.cls-111{opacity:0.73;}.cls-109{fill:url(#linear-gradient-2);}.cls-110{fill:#403da2;}.cls-111{fill:url(#linear-gradient-3);}.cls-112,.cls-113,.cls-114,.cls-115,.cls-116,.cls-120,.cls-121,.cls-122,.cls-123,.cls-125{fill-rule:evenodd;}.cls-112{fill:url(#Áåçûìÿííûé_ãðàäèåíò_206);}.cls-113{fill:url(#Áåçûìÿííûé_ãðàäèåíò_206-2);}.cls-114{fill:url(#Áåçûìÿííûé_ãðàäèåíò_107);}.cls-115{fill:#601734;}.cls-116{fill:#b3d9ff;}.cls-117{fill:#ff1d9c;}.cls-118{fill:#6877ff;}.cls-119{fill:#4f31e0;}.cls-120{fill:url(#Áåçûìÿííûé_ãðàäèåíò_107-2);}.cls-121{fill:url(#Áåçûìÿííûé_ãðàäèåíò_206-3);}.cls-122{fill:url(#Áåçûìÿííûé_ãðàäèåíò_107-3);}.cls-123{fill:url(#Áåçûìÿííûé_ãðàäèåíò_206-4);}.cls-124{fill:#744ca2;}.cls-125{fill:#cbd1ff;}</style><clipPath id="clip-path"><rect class="cls-1" width="600" height="400" transform="translate(600 400) rotate(180)"/></clipPath><linearGradient id="Áåçûìÿííûé_ãðàäèåíò_29" x1="139.84" y1="275.2" x2="139.84" y2="204.01" gradientTransform="matrix(-0.91, -0.42, -0.42, 0.91, 675.05, 53.74)" gradientUnits="userSpaceOnUse"><stop offset="0" stop-color="#dbccff"/><stop offset="1" stop-color="#d1bbff"/></linearGradient><linearGradient id="Áåçûìÿííûé_ãðàäèåíò_28" x1="139.83" y1="277.98" x2="139.83" y2="206.79" gradientTransform="matrix(-0.91, -0.42, -0.42, 0.91, 675.05, 53.74)" gradientUnits="userSpaceOnUse"><stop offset="0" stop-color="#b5a6e7"/><stop offset="1" stop-color="#7760bf"/></linearGradient><linearGradient id="Áåçûìÿííûé_ãðàäèåíò_28-2" x1="139.83" y1="260.28" x2="139.83" y2="230.27" xlink:href="#Áåçûìÿííûé_ãðàäèåíò_28"/><linearGradient id="Áåçûìÿííûé_ãðàäèåíò_27" x1="135.57" y1="230.87" x2="144.09" y2="230.87" gradientTransform="matrix(-0.91, -0.42, -0.42, 0.91, 675.05, 53.74)" gradientUnits="userSpaceOnUse"><stop offset="0" stop-color="#8b8be0"/><stop offset="1" stop-color="#a177b7"/></linearGradient><linearGradient id="Áåçûìÿííûé_ãðàäèåíò_94" x1="139.83" y1="232.85" x2="139.83" y2="227.69" gradientTransform="matrix(-0.91, -0.42, -0.42, 0.91, 675.05, 53.74)" gradientUnits="userSpaceOnUse"><stop offset="0" stop-color="#fff"/><stop offset="1" stop-color="#a177b7"/></linearGradient><linearGradient id="Áåçûìÿííûé_ãðàäèåíò_95" x1="144.34" y1="263.34" x2="144.34" y2="230.26" gradientTransform="matrix(-0.91, -0.42, -0.42, 0.91, 675.05, 53.74)" gradientUnits="userSpaceOnUse"><stop offset="0"/><stop offset="1" stop-color="#fff"/></linearGradient><linearGradient id="Áåçûìÿííûé_ãðàäèåíò_239" x1="280.3" y1="400" x2="280.3" y2="310.79" gradientTransform="matrix(-1, 0, 0, 1, 600, 0)" gradientUnits="userSpaceOnUse"><stop offset="0.01" stop-color="#4b1567"/><stop offset="1" stop-color="#4f3885"/></linearGradient><radialGradient id="Áåçûìÿííûé_ãðàäèåíò_83" cx="232.5" cy="368.65" r="27.03" gradientTransform="matrix(-0.66, 0, 0, 1.71, 517.33, -263.75)" gradientUnits="userSpaceOnUse"><stop offset="0" stop-color="#4b474b"/><stop offset="1"/></radialGradient><radialGradient id="Áåçûìÿííûé_ãðàäèåíò_83-2" cx="351.33" cy="352.81" r="27.03" gradientTransform="matrix(0, -0.66, -1.71, 0, 884.44, 600.46)" xlink:href="#Áåçûìÿííûé_ãðàäèåíò_83"/><linearGradient id="Áåçûìÿííûé_ãðàäèåíò_70" x1="277.16" y1="400" x2="277.16" y2="310.79" gradientTransform="matrix(-1, 0, 0, 1, 600, 0)" gradientUnits="userSpaceOnUse"><stop offset="0" stop-color="#ccf"/><stop offset="1" stop-color="#755cbb"/></linearGradient><linearGradient id="Áåçûìÿííûé_ãðàäèåíò_70-2" x1="287.55" y1="355.39" x2="287.55" y2="331.06" xlink:href="#Áåçûìÿííûé_ãðàäèåíò_70"/><linearGradient id="Áåçûìÿííûé_ãðàäèåíò_70-3" x1="259.36" y1="346.45" x2="259.36" y2="322.61" xlink:href="#Áåçûìÿííûé_ãðàäèåíò_70"/><linearGradient id="Áåçûìÿííûé_ãðàäèåíò_71" x1="178.92" y1="161.82" x2="178.92" y2="139.69" gradientTransform="matrix(-1, 0, 0, 1, 600, 0)" gradientUnits="userSpaceOnUse"><stop offset="0.02" stop-color="#ffc2a9"/><stop offset="1" stop-color="#ff9595"/></linearGradient><linearGradient id="Áåçûìÿííûé_ãðàäèåíò_48" x1="192.85" y1="161.29" x2="192.85" y2="124.67" gradientTransform="matrix(-1, 0, 0, 1, 600, 0)" gradientUnits="userSpaceOnUse"><stop offset="0" stop-color="#ffeadb"/><stop offset="0.99" stop-color="#c27cb6"/></linearGradient><linearGradient id="Áåçûìÿííûé_ãðàäèåíò_71-2" x1="191.67" y1="186.21" x2="191.67" y2="129.75" xlink:href="#Áåçûìÿííûé_ãðàäèåíò_71"/><linearGradient id="Áåçûìÿííûé_ãðàäèåíò_73" x1="181.57" y1="177.4" x2="199.32" y2="177.4" gradientTransform="matrix(-1, 0, 0, 1, 600, 0)" gradientUnits="userSpaceOnUse"><stop offset="0.02" stop-color="#d1a1d6"/><stop offset="0.99" stop-color="#bd89c4"/></linearGradient><linearGradient id="Áåçûìÿííûé_ãðàäèåíò_71-3" x1="399" y1="220.6" x2="399" y2="145.1" xlink:href="#Áåçûìÿííûé_ãðàäèåíò_71"/><linearGradient id="Áåçûìÿííûé_ãðàäèåíò_48-2" x1="407.92" y1="196.41" x2="407.92" y2="158.9" xlink:href="#Áåçûìÿííûé_ãðàäèåíò_48"/><linearGradient id="Áåçûìÿííûé_ãðàäèåíò_64" x1="415.32" y1="183.46" x2="415.32" y2="166.65" gradientTransform="matrix(-1, 0, 0, 1, 600, 0)" gradientUnits="userSpaceOnUse"><stop offset="0" stop-color="#ffb0b0"/><stop offset="0.98" stop-color="#ffc2a9"/></linearGradient><linearGradient id="Áåçûìÿííûé_ãðàäèåíò_64-2" x1="425.07" y1="186.05" x2="425.07" y2="176.83" xlink:href="#Áåçûìÿííûé_ãðàäèåíò_64"/><linearGradient id="Áåçûìÿííûé_ãðàäèåíò_73-2" x1="385.63" y1="204.43" x2="402.78" y2="204.43" xlink:href="#Áåçûìÿííûé_ãðàäèåíò_73"/><linearGradient id="Áåçûìÿííûé_ãðàäèåíò_9" x1="283.54" y1="176.45" x2="283.54" y2="140.84" gradientTransform="matrix(-1, 0, 0, 1, 600, 0)" gradientUnits="userSpaceOnUse"><stop offset="0" stop-color="#b4cdf8"/><stop offset="1" stop-color="#d3d6fb"/></linearGradient><linearGradient id="Áåçûìÿííûé_ãðàäèåíò_2" x1="265.21" y1="158.61" x2="301.87" y2="158.61" gradientTransform="matrix(-1, 0, 0, 1, 600, 0)" gradientUnits="userSpaceOnUse"><stop offset="0" stop-color="#b2e8ff"/><stop offset="1" stop-color="#4964bb"/></linearGradient><linearGradient id="Áåçûìÿííûé_ãðàäèåíò_8" x1="273.06" y1="318.73" x2="273.06" y2="139.29" gradientTransform="matrix(-1, 0, 0, 1, 600, 0)" gradientUnits="userSpaceOnUse"><stop offset="0" stop-color="#74a1ef"/><stop offset="1" stop-color="#979dee"/></linearGradient><linearGradient id="Áåçûìÿííûé_ãðàäèåíò_2-2" x1="198.59" y1="206.92" x2="242.29" y2="206.92" xlink:href="#Áåçûìÿííûé_ãðàäèåíò_2"/><linearGradient id="Áåçûìÿííûé_ãðàäèåíò_7" x1="197.24" y1="257.17" x2="197.24" y2="173.26" gradientTransform="matrix(-1, 0, 0, 1, 600, 0)" gradientUnits="userSpaceOnUse"><stop offset="0" stop-color="#74a1ef"/><stop offset="1" stop-color="#aeb3f3"/></linearGradient><linearGradient id="Áåçûìÿííûé_ãðàäèåíò_6" x1="341.53" y1="232.99" x2="397.84" y2="232.99" gradientTransform="matrix(-1, 0, 0, 1, 600, 0)" gradientUnits="userSpaceOnUse"><stop offset="0" stop-color="#81aaf1"/><stop offset="1" stop-color="#aeb3f3"/></linearGradient><linearGradient id="Áåçûìÿííûé_ãðàäèåíò_2-3" x1="361.76" y1="263.62" x2="361.76" y2="179.11" xlink:href="#Áåçûìÿííûé_ãðàäèåíò_2"/><linearGradient id="Áåçûìÿííûé_ãðàäèåíò_2-4" x1="175.69" y1="246.59" x2="317.04" y2="246.59" xlink:href="#Áåçûìÿííûé_ãðàäèåíò_2"/><linearGradient id="Áåçûìÿííûé_ãðàäèåíò_5" x1="300.31" y1="222.94" x2="327.32" y2="222.94" gradientTransform="matrix(-1, 0, 0, 1, 600, 0)" gradientUnits="userSpaceOnUse"><stop offset="0" stop-color="#b2ffd5"/><stop offset="1" stop-color="#4964bb"/></linearGradient><linearGradient id="Áåçûìÿííûé_ãðàäèåíò_5-2" x1="275.8" y1="270.36" x2="315.51" y2="270.36" xlink:href="#Áåçûìÿííûé_ãðàäèåíò_5"/><linearGradient id="Áåçûìÿííûé_ãðàäèåíò_5-3" x1="277.64" y1="288.31" x2="320.06" y2="288.31" xlink:href="#Áåçûìÿííûé_ãðàäèåíò_5"/><linearGradient id="Áåçûìÿííûé_ãðàäèåíò_5-4" x1="241.13" y1="243.86" x2="241.13" y2="196.25" xlink:href="#Áåçûìÿííûé_ãðàäèåíò_5"/><linearGradient id="Áåçûìÿííûé_ãðàäèåíò_5-5" x1="244.96" y1="247.86" x2="244.96" y2="211.77" xlink:href="#Áåçûìÿííûé_ãðàäèåíò_5"/><linearGradient id="Áåçûìÿííûé_ãðàäèåíò_5-6" x1="187.92" y1="201.73" x2="187.92" y2="174.46" xlink:href="#Áåçûìÿííûé_ãðàäèåíò_5"/><linearGradient id="Áåçûìÿííûé_ãðàäèåíò_5-7" x1="209.99" y1="177.72" x2="220.98" y2="177.72" xlink:href="#Áåçûìÿííûé_ãðàäèåíò_5"/><linearGradient id="Áåçûìÿííûé_ãðàäèåíò_2-5" x1="329.45" y1="243.86" x2="329.45" y2="193.32" xlink:href="#Áåçûìÿííûé_ãðàäèåíò_2"/><linearGradient id="Áåçûìÿííûé_ãðàäèåíò_2-6" x1="386.27" y1="232.99" x2="386.27" y2="206.58" xlink:href="#Áåçûìÿííûé_ãðàäèåíò_2"/><linearGradient id="Áåçûìÿííûé_ãðàäèåíò_2-7" x1="356.32" y1="231.81" x2="356.32" y2="211.62" xlink:href="#Áåçûìÿííûé_ãðàäèåíò_2"/><linearGradient id="Áåçûìÿííûé_ãðàäèåíò_5-8" x1="182.22" y1="203.47" x2="182.22" y2="195.97" xlink:href="#Áåçûìÿííûé_ãðàäèåíò_5"/><linearGradient id="Áåçûìÿííûé_ãðàäèåíò_2-8" x1="202.25" y1="226.33" x2="202.25" y2="185.35" xlink:href="#Áåçûìÿííûé_ãðàäèåíò_2"/><linearGradient id="Áåçûìÿííûé_ãðàäèåíò_5-9" x1="307.67" y1="197.48" x2="307.67" y2="166.65" xlink:href="#Áåçûìÿííûé_ãðàäèåíò_5"/><linearGradient id="Áåçûìÿííûé_ãðàäèåíò_5-10" x1="267.27" y1="193.32" x2="267.27" y2="150.76" xlink:href="#Áåçûìÿííûé_ãðàäèåíò_5"/><linearGradient id="Áåçûìÿííûé_ãðàäèåíò_2-9" x1="259.03" y1="160.08" x2="305.29" y2="160.08" xlink:href="#Áåçûìÿííûé_ãðàäèåíò_2"/><linearGradient id="Áåçûìÿííûé_ãðàäèåíò_2-10" x1="377.95" y1="229.98" x2="377.95" y2="203.21" xlink:href="#Áåçûìÿííûé_ãðàäèåíò_2"/><linearGradient id="Áåçûìÿííûé_ãðàäèåíò_2-11" x1="340.11" y1="260.18" x2="340.11" y2="179.11" xlink:href="#Áåçûìÿííûé_ãðàäèåíò_2"/><linearGradient id="Áåçûìÿííûé_ãðàäèåíò_2-12" x1="252.95" y1="298.26" x2="252.95" y2="275.02" xlink:href="#Áåçûìÿííûé_ãðàäèåíò_2"/><linearGradient id="Áåçûìÿííûé_ãðàäèåíò_2-13" x1="298.09" y1="291.88" x2="298.09" y2="280.59" xlink:href="#Áåçûìÿííûé_ãðàäèåíò_2"/><linearGradient id="Áåçûìÿííûé_ãðàäèåíò_71-4" x1="297.6" y1="146.81" x2="297.6" y2="69.6" xlink:href="#Áåçûìÿííûé_ãðàäèåíò_71"/><linearGradient id="Áåçûìÿííûé_ãðàäèåíò_71-5" x1="268.82" y1="115.66" x2="268.82" y2="92.89" xlink:href="#Áåçûìÿííûé_ãðàäèåíò_71"/><linearGradient id="Áåçûìÿííûé_ãðàäèåíò_387" x1="308.33" y1="124.27" x2="309.28" y2="119.3" gradientTransform="matrix(-1, 0, 0, 1, 600, 0)" gradientUnits="userSpaceOnUse"><stop offset="0" stop-color="#e1616a"/><stop offset="1" stop-color="#ff8883"/></linearGradient><linearGradient id="Áåçûìÿííûé_ãðàäèåíò_48-3" x1="299.71" y1="120.46" x2="299.71" y2="70.73" xlink:href="#Áåçûìÿííûé_ãðàäèåíò_48"/><linearGradient id="Áåçûìÿííûé_ãðàäèåíò_18" x1="289.4" y1="85.43" x2="308.94" y2="85.43" gradientTransform="matrix(-1, 0, 0, 1, 600, 0)" gradientUnits="userSpaceOnUse"><stop offset="0.01" stop-color="#651d4f"/><stop offset="1" stop-color="#93364f"/></linearGradient><linearGradient id="Áåçûìÿííûé_ãðàäèåíò_18-2" x1="315.86" y1="89.2" x2="322.28" y2="89.2" xlink:href="#Áåçûìÿííûé_ãðàäèåíò_18"/><linearGradient id="Áåçûìÿííûé_ãðàäèåíò_59" x1="297.29" y1="100.09" x2="297.29" y2="90.24" gradientTransform="matrix(-1, 0, 0, 1, 600, 0)" gradientUnits="userSpaceOnUse"><stop offset="0" stop-color="#cf6074"/><stop offset="1" stop-color="#f37270"/></linearGradient><linearGradient id="Áåçûìÿííûé_ãðàäèåíò_184" x1="316.94" y1="103.22" x2="316.94" y2="94.65" gradientTransform="matrix(-1, 0, 0, 1, 600, 0)" gradientUnits="userSpaceOnUse"><stop offset="0" stop-color="#cf6074"/><stop offset="1" stop-color="#ff817f"/></linearGradient><linearGradient id="Áåçûìÿííûé_ãðàäèåíò_48-4" x1="317.75" y1="108.21" x2="317.75" y2="88.92" xlink:href="#Áåçûìÿííûé_ãðàäèåíò_48"/><linearGradient id="Áåçûìÿííûé_ãðàäèåíò_18-3" x1="298.63" y1="147.78" x2="298.63" y2="54.15" xlink:href="#Áåçûìÿííûé_ãðàäèåíò_18"/><linearGradient id="Áåçûìÿííûé_ãðàäèåíò_35" x1="323.23" y1="88.82" x2="323.23" y2="67.22" gradientTransform="matrix(-1, 0, 0, 1, 600, 0)" gradientUnits="userSpaceOnUse"><stop offset="0" stop-color="#ffeadb"/><stop offset="0.99" stop-color="#8860c7"/></linearGradient><linearGradient id="Áåçûìÿííûé_ãðàäèåíò_52" x1="293.79" y1="147.78" x2="293.79" y2="54.15" gradientTransform="matrix(-1, 0, 0, 1, 600, 0)" gradientUnits="userSpaceOnUse"><stop offset="0" stop-color="#ccc2db"/><stop offset="0.99" stop-color="#8860c7"/></linearGradient><linearGradient id="Áåçûìÿííûé_ãðàäèåíò_397" x1="300.07" y1="147.76" x2="300.07" y2="143.74" gradientTransform="matrix(-1, 0, 0, 1, 600, 0)" gradientUnits="userSpaceOnUse"><stop offset="0" stop-color="#776d7e"/><stop offset="1" stop-color="#9d68c2"/></linearGradient><linearGradient id="Áåçûìÿííûé_ãðàäèåíò_285" x1="272.13" y1="110.26" x2="261.93" y2="97.77" gradientTransform="matrix(-1, 0, 0, 1, 600, 0)" gradientUnits="userSpaceOnUse"><stop offset="0" stop-color="#ffeadb"/><stop offset="0.99" stop-color="#b060f4"/></linearGradient><linearGradient id="Áåçûìÿííûé_ãðàäèåíò_285-2" x1="273.2" y1="108.65" x2="268.18" y2="102.51" xlink:href="#Áåçûìÿííûé_ãðàäèåíò_285"/><linearGradient id="Áåçûìÿííûé_ãðàäèåíò_10" x1="316.6" y1="123.14" x2="321.83" y2="123.14" gradientTransform="matrix(-1, 0, 0, 1, 600, 0)" gradientUnits="userSpaceOnUse"><stop offset="0.01" stop-color="#651d4f"/><stop offset="1" stop-color="#c46376"/></linearGradient><linearGradient id="Áåçûìÿííûé_ãðàäèåíò_10-2" x1="310.13" y1="119.24" x2="315.78" y2="119.24" xlink:href="#Áåçûìÿííûé_ãðàäèåíò_10"/><linearGradient id="Áåçûìÿííûé_ãðàäèåíò_89" x1="351.8" y1="132.95" x2="528.85" y2="132.95" gradientTransform="matrix(-1, 0, 0, 1, 600, 0)" gradientUnits="userSpaceOnUse"><stop offset="0" stop-color="#9d68c2"/><stop offset="1" stop-color="#aec2ff"/></linearGradient><linearGradient id="Áåçûìÿííûé_ãðàäèåíò_85" x1="387.81" y1="199.82" x2="387.81" y2="146.42" gradientTransform="matrix(-1, 0, 0, 1, 600, 0)" gradientUnits="userSpaceOnUse"><stop offset="0" stop-color="#ccedff"/><stop offset="1" stop-color="#9d68c2"/></linearGradient><linearGradient id="Áåçûìÿííûé_ãðàäèåíò_85-2" x1="478.87" y1="173.78" x2="478.87" y2="150.26" gradientTransform="matrix(1, 0, 0, -1, -357.75, 324.04)" xlink:href="#Áåçûìÿííûé_ãðàäèåíò_85"/><linearGradient id="Áåçûìÿííûé_ãðàäèåíò_85-3" x1="506.63" y1="173.78" x2="506.63" y2="150.26" gradientTransform="matrix(1, 0, 0, -1, -413.25, 324.04)" xlink:href="#Áåçûìÿííûé_ãðàäèåíò_85"/><linearGradient id="Áåçûìÿííûé_ãðàäèåíò_85-4" x1="450.66" y1="173.78" x2="450.66" y2="150.26" gradientTransform="matrix(1, 0, 0, -1, -301.31, 324.04)" xlink:href="#Áåçûìÿííûé_ãðàäèåíò_85"/><linearGradient id="Áåçûìÿííûé_ãðàäèåíò_65" x1="197.67" y1="115.99" x2="197.67" y2="91.37" gradientTransform="matrix(-1, 0, 0, 1, 600, 0)" gradientUnits="userSpaceOnUse"><stop offset="0" stop-color="#d93de3"/><stop offset="1" stop-color="#ff6dba"/></linearGradient><linearGradient id="Áåçûìÿííûé_ãðàäèåíò_14" x1="212.72" y1="115.99" x2="212.72" y2="91.37" gradientTransform="matrix(-1, 0, 0, 1, 600, 0)" gradientUnits="userSpaceOnUse"><stop offset="0" stop-color="#a242ea"/><stop offset="1" stop-color="#fe117e"/></linearGradient><linearGradient id="linear-gradient" x1="193.4" y1="375.37" x2="206.71" y2="269.36" gradientTransform="matrix(-1, 0, 0, 1, 600, 0)" gradientUnits="userSpaceOnUse"><stop offset="0" stop-color="#ff06da"/><stop offset="1" stop-color="#7837a0"/></linearGradient><linearGradient id="Áåçûìÿííûé_ãðàäèåíò_302" x1="504.25" y1="113.31" x2="504.25" y2="104.37" gradientTransform="matrix(-1, 0, 0, 1, 600, 0)" gradientUnits="userSpaceOnUse"><stop offset="0" stop-color="#459fff"/><stop offset="1" stop-color="#a96dff"/></linearGradient><linearGradient id="Áåçûìÿííûé_ãðàäèåíò_302-2" x1="84.26" y1="218.04" x2="84.26" y2="206.91" xlink:href="#Áåçûìÿííûé_ãðàäèåíò_302"/><linearGradient id="Áåçûìÿííûé_ãðàäèåíò_322" x1="517.37" y1="113.31" x2="517.37" y2="104.37" gradientTransform="matrix(-1, 0, 0, 1, 600, 0)" gradientUnits="userSpaceOnUse"><stop offset="0" stop-color="#b31a8f"/><stop offset="1" stop-color="#fe117e"/></linearGradient><linearGradient id="Áåçûìÿííûé_ãðàäèåíò_322-2" x1="229.2" y1="142.73" x2="229.2" y2="136.41" xlink:href="#Áåçûìÿííûé_ãðàäèåíò_322"/><linearGradient id="Áåçûìÿííûé_ãðàäèåíò_25" x1="440.86" y1="282.16" x2="440.86" y2="275.84" gradientTransform="matrix(-1, 0, 0, 1, 600, 0)" gradientUnits="userSpaceOnUse"><stop offset="0" stop-color="#8642a0"/><stop offset="1" stop-color="#6456c0"/></linearGradient><linearGradient id="Áåçûìÿííûé_ãðàäèåíò_25-2" x1="112.34" y1="313.33" x2="112.34" y2="307.68" xlink:href="#Áåçûìÿííûé_ãðàäèåíò_25"/><linearGradient id="linear-gradient-2" x1="136.04" y1="282.77" x2="136.04" y2="236.11" gradientTransform="matrix(-1, 0, 0, 1, 600, 0)" gradientUnits="userSpaceOnUse"><stop offset="0" stop-color="#0683e3"/><stop offset="1" stop-color="#6de2ff"/></linearGradient><linearGradient id="linear-gradient-3" x1="458.23" y1="348.82" x2="458.23" y2="290.45" xlink:href="#linear-gradient-2"/><linearGradient id="Áåçûìÿííûé_ãðàäèåíò_206" x1="404.32" y1="275.2" x2="399.35" y2="232.51" gradientTransform="matrix(-0.97, 0.26, 0.26, 0.97, 536.37, -54.68)" gradientUnits="userSpaceOnUse"><stop offset="0" stop-color="#1852a0"/><stop offset="1" stop-color="#067ed3"/></linearGradient><linearGradient id="Áåçûìÿííûé_ãðàäèåíò_206-2" x1="399.5" y1="275.37" x2="399.5" y2="231.62" xlink:href="#Áåçûìÿííûé_ãðàäèåíò_206"/><linearGradient id="Áåçûìÿííûé_ãðàäèåíò_107" x1="361.94" y1="289.27" x2="358.72" y2="261.66" gradientTransform="matrix(-0.94, 0.33, 0.52, 1.49, 418.66, -235.91)" gradientUnits="userSpaceOnUse"><stop offset="0" stop-color="#188dc1"/><stop offset="1" stop-color="#06bfe7"/></linearGradient><linearGradient id="Áåçûìÿííûé_ãðàäèåíò_107-2" x1="412.35" y1="88.1" x2="423.68" y2="46.01" gradientTransform="matrix(-1, 0, 0, 1, 600, 0)" xlink:href="#Áåçûìÿííûé_ãðàäèåíò_107"/><linearGradient id="Áåçûìÿííûé_ãðàäèåíò_206-3" x1="392.87" y1="83.24" x2="401.32" y2="51.86" gradientTransform="matrix(-1, 0, 0, 1, 600, 0)" xlink:href="#Áåçûìÿííûé_ãðàäèåíò_206"/><linearGradient id="Áåçûìÿííûé_ãðàäèåíò_107-3" x1="121.92" y1="160.57" x2="129.65" y2="131.88" gradientTransform="translate(393.34)" xlink:href="#Áåçûìÿííûé_ãðàäèåíò_107"/><linearGradient id="Áåçûìÿííûé_ãðàäèåíò_206-4" x1="108.65" y1="157.26" x2="114.41" y2="135.87" gradientTransform="translate(393.34)" xlink:href="#Áåçûìÿííûé_ãðàäèåíò_206"/></defs><g class="cls-2"><g id="Layer_3" data-name="Layer 3"><g class="cls-3"><rect class="cls-4" width="600" height="400" transform="translate(600 400) rotate(180)"/><path class="cls-5" d="M452.05,204.67l-2.53.08-.07-2.09h-.09l-.75,2.12-3.61.11a5.18,5.18,0,0,1-1.71-.2,3,3,0,0,1-1.15-.68,3,3,0,0,1-.66-1.1,5.44,5.44,0,0,1-.24-1.46l-.05-1.85a4.89,4.89,0,0,1,.15-1.47,2.82,2.82,0,0,1,.59-1.14,2.89,2.89,0,0,1,1.11-.74,4.81,4.81,0,0,1,1.69-.31l6.7-.2q.35,0,.36.36Zm-2.73-6.45a.18.18,0,0,0-.05-.12.15.15,0,0,0-.14,0l-4.1.12a1.52,1.52,0,0,0-1,.33,1.69,1.69,0,0,0-.27,1.15l0,1.5a1.6,1.6,0,0,0,.34,1.12,1.39,1.39,0,0,0,1,.29l4.29-.13Z"/><path class="cls-5" d="M437,201.53l-3.5.1-.05-1.82,4.17-.12,0-1.12a.27.27,0,0,0,0-.12.18.18,0,0,0-.14,0l-5.07.16c-.08,0-.12,0-.12.13l0,1.2h-.1l-2.37-.8-.07-2.32c0-.25.11-.38.35-.38l9.61-.3a.33.33,0,0,1,.37.36l.25,8.21a.33.33,0,0,1-.35.38l-9.89.3L430,203l7.55-.23a.15.15,0,0,0,.16-.18l-.08-2.68h-.09Z"/><path class="cls-5" d="M418.42,199l-.06-1.84a.35.35,0,0,1,.37-.41l7.95-.24a2.39,2.39,0,0,1,1.74.48,2.1,2.1,0,0,1,.56,1.49v.63a2.76,2.76,0,0,1-.08.85,1.46,1.46,0,0,1-.34.61,1.64,1.64,0,0,1-.62.41,3.92,3.92,0,0,1-.92.25l-5.34.84a.47.47,0,0,0-.3.13.43.43,0,0,0-.07.33v.24a.66.66,0,0,0,.12.41c.07.08.21.11.43.1l7.13-.21.07,2.32-8,.24a4.2,4.2,0,0,1-1.24-.11,2,2,0,0,1-.83-.41,1.68,1.68,0,0,1-.46-.7,3.12,3.12,0,0,1-.16-1l0-.71a3.34,3.34,0,0,1,.08-.88,1.34,1.34,0,0,1,.31-.63,1.75,1.75,0,0,1,.59-.42,3.63,3.63,0,0,1,.89-.26l5.53-.94a.76.76,0,0,0,.33-.12.46.46,0,0,0,.07-.34v-.22a.46.46,0,0,0-.11-.31.42.42,0,0,0-.36-.1l-4.72.14c-.1,0-.15.05-.14.15l0,1h-.1Z"/><path class="cls-5" d="M414.9,205.8l-.27-8.94,2.53-.08.27,8.94Z"/><path class="cls-5" d="M405.55,203.61c0,.1.05.15.14.14l4.24-.12a1.41,1.41,0,0,0,1-.35,1.6,1.6,0,0,0,.27-1.14l-.05-1.58a2.61,2.61,0,0,0-.09-.68,1,1,0,0,0-.25-.43.85.85,0,0,0-.42-.22,2.28,2.28,0,0,0-.62,0l-4.27.13c-.08,0-.11,0-.11.12l0,.86h-.1l-2.38-.79,0-1.93c0-.25.1-.37.34-.38l6.7-.2a4.87,4.87,0,0,1,1.7.2,2.8,2.8,0,0,1,1.15.68,2.62,2.62,0,0,1,.66,1.09,4.82,4.82,0,0,1,.24,1.47l.06,1.84a5.23,5.23,0,0,1-.15,1.47,2.71,2.71,0,0,1-1.7,1.89,5.16,5.16,0,0,1-1.69.3l-6.73.21c-.21,0-.31-.11-.32-.34l-.13-4.39,2.5-.07v.11c0,.11,0,.23,0,.37a2.94,2.94,0,0,0,0,.42Z"/><path class="cls-5" d="M401.45,197.26c.22,0,.34.11.35.35l.26,8.58-2.3.07-.2-6.72c0-.13-.07-.2-.2-.19h-.13a.26.26,0,0,0-.23.16L395.69,206a.72.72,0,0,1-.24.29.74.74,0,0,1-.38.08l-3.64.11c-.23,0-.34-.11-.35-.34l-.26-8.59,2.3-.07.2,6.73a.17.17,0,0,0,.2.19h.14a.29.29,0,0,0,.23-.16l3.19-6.53a.58.58,0,0,1,.61-.37Z"/><circle class="cls-6" cx="330.95" cy="195.53" r="155.02" transform="translate(-41.33 291.29) rotate(-45)"/><circle class="cls-6" cx="208.65" cy="285.06" r="70.52"/><path class="cls-7" d="M443.73,188.13c-.24,1.52.43,4.15,3.59,7.49L434,227.87a8.47,8.47,0,1,0,8.76,4.09L459,201.05c4.7.29,7.12-1,8.06-2.05.17-.21,1.17-2.52,1.17-2.52a23.8,23.8,0,0,0,.34-14l-2.36-1.1-4,10.23a10.34,10.34,0,0,1-6.47,1.18v0a10.33,10.33,0,0,1-3.24-5.72l5.3-9.61-2.35-1.09a23.82,23.82,0,0,0-10.56,9.26A27.3,27.3,0,0,0,443.73,188.13ZM431.17,234.2l3.88-2.71,4.29,2,.41,4.72-3.88,2.71-4.29-2Z"/><path class="cls-8" d="M446.15,198.14l-13.31,32.24a8.48,8.48,0,1,0,8.76,4.1l16.21-30.92c5.56.35,9.23-4.56,9.23-4.56a23.84,23.84,0,0,0,.33-14l-2.35-1.1-4,10.22a10.31,10.31,0,0,1-6.47,1.19h0a10.22,10.22,0,0,1-3.24-5.72l5.29-9.6-2.35-1.1a23.75,23.75,0,0,0-10.55,9.27S442.31,194.09,446.15,198.14ZM430,236.72l3.88-2.72,4.29,2,.41,4.72-3.88,2.71-4.29-2Z"/><rect class="cls-9" x="465.39" y="181.85" width="2.78" height="2.59" transform="translate(103.26 528.53) rotate(-64.96)"/><rect class="cls-9" x="454.66" y="176.86" width="2.78" height="2.59" transform="translate(101.59 515.91) rotate(-64.96)"/><rect class="cls-9" x="431.75" y="238.81" width="2.78" height="4.74" transform="translate(31.28 531.51) rotate(-64.96)"/><path class="cls-10" d="M446.62,202.25,436,228.54a6.38,6.38,0,0,0,5.28,2.47l13.09-25.15A10.09,10.09,0,0,0,446.62,202.25Zm.57.49a11,11,0,0,1,3.24.95,13.75,13.75,0,0,1,3.15,2.07l-13.1,24.64a6.5,6.5,0,0,1-1.81-.54,7.7,7.7,0,0,1-1.69-1.11Z"/><path class="cls-9" d="M437,228.75l-1-.21a5.64,5.64,0,0,0,5.28,2.47l-.77-.61A7.13,7.13,0,0,1,437,228.75Z"/><path class="cls-11" d="M454.34,205.86l-.76-.1a12.16,12.16,0,0,0-6.39-3l-.57-.49a9.88,9.88,0,0,1,7.72,3.61Z"/><path class="cls-12" d="M457.81,203.56a28.93,28.93,0,0,1-11.66-5.42l-1.7,4.12s1.93-1.91,6.16-.18c5,2,4.68,6,4.68,6Z"/><path class="cls-13" d="M444.45,202.26a5,5,0,0,1,2.58-.89L434.37,232l-1.53-1.58Z"/><path class="cls-4" d="M444.45,202.26s1.32,4.09-2.49,6Z"/><path class="cls-14" d="M253.77,400h47c4.92-27.32,16.36-62.87,16.36-62.87,2.78-1.65,8.21.38,8.21.38L342.52,400h42.94c2.28-38.56-18.82-82.33-18.82-82.33h0a4.73,4.73,0,0,0,.56-2.39,5.68,5.68,0,0,0-1.6-1.86c-1.16-1.06-2.54-2.12-2.54-2.12l-80.11-.5s-.81.41-1.84,1h0c-1.75,1.06-4.12,2.7-4.12,3.9a5.47,5.47,0,0,0,.81,3l0,.05C260.66,351.15,253.77,400,253.77,400Z"/><ellipse class="cls-15" cx="363.14" cy="367.92" rx="17.92" ry="46.31" transform="translate(-73.42 91.06) rotate(-12.99)"/><ellipse class="cls-16" cx="279.94" cy="367.47" rx="46.31" ry="17.92" transform="translate(-149.43 537.87) rotate(-74.35)"/><path class="cls-17" d="M348.08,400l.49-.08c-5.46-32.2-19.34-59.21-19.47-59.48l-.06-.07-3.54-3.09-.32.38,3.49,3.06C329.3,342,342.73,368.51,348.08,400Z"/><path class="cls-17" d="M294.39,400c5.36-31.55,19.16-58.34,19.78-59.54l3.13-2.8-.34-.38-3.21,2.91c-.15.27-14.39,27.53-19.85,59.73Z"/><path class="cls-18" d="M277,315.72a5.47,5.47,0,0,0,.81,3l0,.05c16.68,3.77,29.37,19.34,29.37,19.34C298.12,355.51,283,400,283,400h17.81c4.92-27.32,16.36-62.87,16.36-62.87,2.78-1.65,8.21.38,8.21.38L342.52,400h11.12c-4-26.18-15.73-58.14-15.73-58.14,11.55-13.45,28.73-24.19,28.73-24.19h0l2-1.28-1.48-1.11c-7.43,7.13-31.39,16.44-32.13,16.73l30.53-18.59c-1.16-1.06-2.54-2.12-2.54-2.12l-80.11-.5s-.81.41-1.84,1l21.88,12Z"/><polygon class="cls-19" points="317.13 337.13 307.78 331.06 310 337.13 311.63 355.39 317.13 337.13"/><polygon class="cls-20" points="325.34 337.51 335.08 332 355.93 322.61 329.38 340.16 327.8 346.45 325.34 337.51"/><path class="cls-21" d="M298.54,149.65c-.06.43-.11.66-.11.66a57.27,57.27,0,0,0,1.66,5.66,46,46,0,0,0,6.23,12.12,23.85,23.85,0,0,0,2.72,3.18c14.59-4.58,21.78-18.85,24.54-26a.36.36,0,0,0,0-.11c.53-1.34.88-2.42,1.1-3.12h0c.17-.56.25-.87.25-.87l-.18-.37,0-.05c-.24-.5-.48-1-.7-1.5a71.16,71.16,0,0,1-4-11.17c-.71-2.62-1.09-4.64-1.27-5.71-.09-.55-.13-.85-.13-.85l-6.8,3.59-23.43,12.4a38.55,38.55,0,0,1,.5,5.94c0,1.25,0,2.37-.09,3.32-.07,1.16-.19,2.08-.28,2.68h0A.68.68,0,0,1,298.54,149.65Z"/><path class="cls-22" d="M298.49,149.26c0,.13,0,.26.05.39a7.73,7.73,0,0,0,.19.8,0,0,0,0,0,0,0c1.19,4.41,6,8.92,12.07,6.75,6.63-2.37,19.25-29.1,19.25-29.1l-1.27-5.71-30,24.4-.33,2.31Z"/><path class="cls-23" d="M398.22,144.37s1.83-10.11,1-17.56a81,81,0,0,1,.21-15.92,4.11,4.11,0,0,1,3.14,0c1.33.76,4.42,8.47,3,14.66s-.32,21-.32,21h2.09l4.55-6.25,2.21-.64s12.72,12,12.53,19.14L425,165.18l-15.67-.54L399.11,153Z"/><path class="cls-24" d="M414.14,139.69A81.23,81.23,0,0,1,412,154.47a3.54,3.54,0,0,0,3.57,3l.8-.9s.57,3.17,3.46,3.41l2.75-2.75-.71,2.27a3.89,3.89,0,0,0,3.6,2.33s4.36-3.41,4.64-7.87l-4.31-3.64v-2.8l-5.11-3.6-.1-2A12.08,12.08,0,0,0,414.14,139.69Z"/><path class="cls-25" d="M399.05,124.67a7.17,7.17,0,0,0,1.86,2.71,15.85,15.85,0,0,0,4.24,1.34l.14,17.86h2.09l4.55-6.25s-2.31,3.56-2.45,6.25l1.8.88,1.56-5.35.74,3.85-.73,4.8a12.62,12.62,0,0,0-7.58-2.42l-.73,1.33s8.82,7.31,10.86,11.62c0,0-4.36-5.54-14.31-11.65l-.94-2.93-1.26-7S400.08,129.59,399.05,124.67Z"/><path class="cls-26" d="M391.65,155.8c.82,2.46,9.41,12.69,10.36,14.91a30,30,0,0,1,1.52,5.11C407.75,185,418,186.21,418,186.21l.47-8.24s5.49-3.16,6.42-4.89v0l.11-.29a68.8,68.8,0,0,0,0-7.58l-9.61-3.89c-4.17-5.4-14.31-11.65-14.31-11.65l-.47-2.83c7.28-3.58,6.06-14.41,4.83-15.74a5.4,5.4,0,0,0-3.5-1.32s-2.66,8.71-4.36,12.79S390.83,153.34,391.65,155.8Z"/><path class="cls-27" d="M420.61,141.87s-1.07,9.95-4.22,14.69a23.19,23.19,0,0,0,4.32-12.65Z"/><path class="cls-27" d="M425.82,147.51s-1,8-6,12.46c0,0,4.37-2.18,6-9.66Z"/><path class="cls-28" d="M400.68,168.59s10.83,10.52,17.75,9.38l-.47,8.24a18.28,18.28,0,0,1-15.07-13A31.55,31.55,0,0,0,400.68,168.59Z"/><path class="cls-29" d="M171.64,182.89s10,18.19,21.6,23.78h4l9.19,13.93s5.94-3.73,6.38-16A11.17,11.17,0,0,1,210.2,200s3.28-2.58,4.17-4.47,1.2-7.58,1.83-9.92,6-7.2,7.2-7.83,6.63-.95,6.63-.95.76-2,0-2.9-9.22-4.24-13.83-1.08a20.77,20.77,0,0,1-.82,3.67c-.51,1.26-4.55,5.74-5.18,5.74s-3.35-2.27-4.55-4a178.56,178.56,0,0,1-8.74-19.32.5.5,0,0,0,0-.13c0-.07-.05-.14-.06-.2a.93.93,0,0,1,0-.13s0,0,0-.05c-1.14-3.85-7.77-11.24-11.31-13.26a2.09,2.09,0,0,0-2.33,1.51s2.84,8.09,5.81,12.89c.5.81,1,1.76,1.6,2.78h0c2.53,4.65,5.38,10.74,5.79,11.63l.05.11-1.58.81-4.27-4.05-4.38-4.15-10,10.61,1,1.26,3.14,4-1.59.29-3.7-4.09Z"/><path class="cls-30" d="M174,186.76l3.18,4.67s17.45-13.46,21.24-14.6,5.18-.38,5.18-.38l3.91,5s-7.2,6.38-7.83,15c0,0,2.4-10.86,10.55-14.15-.63,0-3.35-2.27-4.55-4a178.56,178.56,0,0,1-8.74-19.32,5,5,0,0,1-.16,3.41c-.86,1.59-5.92.09-6.22,0h0l5.8,11.63.05.11-1.58.81-4.27-4.05,2.14,5-15.58,2.75,3.14,4-1.59.29Z"/><path class="cls-31" d="M186.14,166.66s-3-.44-5,3.48l.44,1.26s-3,.58-5.81,5.37a16.19,16.19,0,0,0,8.78,6.69s2.9-.82,3.41-3.28l-.57-1.58,2.27,1.71s2.72.82,3.92-3.23Z"/><path class="cls-32" d="M170.73,181.63a4.67,4.67,0,0,1,2.46-4.8l6,6.63a3.09,3.09,0,0,1-2.78,2.59S172.31,184.66,170.73,181.63Z"/><path class="cls-33" d="M214.37,195.53a44.46,44.46,0,0,1-17.15,11.14l4.4,6.66,9.17-11.65L210.2,200S213.87,197.24,214.37,195.53Z"/><path class="cls-27" d="M181.59,171.4s2.9,4.8,5.81,7.2l.57,1.58s-5.64-3.81-7.72-8.2A3.57,3.57,0,0,1,181.59,171.4Z"/><path class="cls-34" d="M391.65,155.8s4.64-1,6.57-5,.67-9.92.67-9.92a102.24,102.24,0,0,1-5.45,9.36C391.63,152.58,391.14,155.29,391.65,155.8Z"/><path class="cls-35" d="M305,172.84a20.1,20.1,0,0,0,4.84,3.54l.12.07.14-.08h0c.51-.31,2.25-1.38,4.59-3.14,6.12-4.61,16.34-13.93,19.26-26.49l0,0a31.14,31.14,0,0,0,.7-4.59h0c0-.41.06-.82.07-1.24a64.43,64.43,0,0,1-5.55,9.92c-4.14,6.06-10.35,12.67-17.77,12.71-6.42,0-9.71-4.35-11.38-8.4a22.92,22.92,0,0,1-1.35-4.6,0,0,0,0,1,0,0c-.07-.36-.12-.68-.17-.95h0c0-.14,0-.26-.05-.37-.06-.45-.08-.71-.08-.71S296,163.77,305,172.84Z"/><path class="cls-36" d="M305,172.84a20.1,20.1,0,0,0,4.84,3.54h.27c.51-.31,2.25-1.38,4.59-3.14,6.12-4.61,16.34-13.93,19.26-26.49l0,0a31.14,31.14,0,0,0,.7-4.59h0c0-.41.06-.82.07-1.24a64.43,64.43,0,0,1-5.55,9.92s-4,11.1-12.78,16.6c-4.38,2.75-7.7,2.35-10.14.73a15.09,15.09,0,0,1-4.95-6.54,15.38,15.38,0,0,1-1.28-5.58q0-.5,0-.9a22.92,22.92,0,0,1-1.35-4.6,0,0,0,0,1,0,0c-.07-.36-.12-.68-.17-.95h0c0-.14,0-.26-.05-.37-.06-.45-.08-.71-.08-.71S296,163.77,305,172.84Z"/><path class="cls-37" d="M248.88,263.53l.16.08c.82.1,3.37-.46,6.71-3.35h0l0,0s0,0,0,0c2.8-2.45,6.16-6.54,9.51-13.24,6.7-13.39,8.62-22.33,8.93-23.89l0-.24,3.91,6.2c2.65,8,7.67,40.95,7.58,42.37s-4.45,8.34-4.36,9.19v0c.12.86,2.08,2.75,2.64,4.81.38,1.37-2.28,5.69-4.15,8.92h0a13.13,13.13,0,0,0-1.72,3.58c0,1.51,4.74,8.9,4.74,8.9v4l.07.07.22.2.18.15c1.8,1.42,9.43,6.07,33.27,7.35C345,320.07,363.77,311,363.77,311l-1.42-3.89s1.32-1.13,1.42-1.7-1-1.9-1-1.9,2.84-1.51,2.84-3.41-5.69-7.76-5.5-12.79,4.55-9.47,5.12-12.31-7.39-9.85-7.39-9.85c6.82-21.6,8.15-50.59,8.15-50.59l1.32-1.52s8.15,18.57,15.54,27.66c.88,1.08,1.81,2.15,2.77,3.18a81,81,0,0,0,6.36,6.15c5.12,4.46,9.77,7.39,10.95,7.16,1.9-.38,9.48-15.35,9.13-30.7-.16-7.3-4.56-15.47-9.13-22-.49-.7-1-1.39-1.48-2.06a104.89,104.89,0,0,0-7.84-9.45c-.58-.62-.91-.95-.91-.95s1-3.35,1.75-6.26a1.6,1.6,0,0,1,0-.21.36.36,0,0,1,0-.1.31.31,0,0,1,0-.07c.42-1.79.68-3.34.44-3.72-.63-1-4.3-2.15-4.93-2.9s-3.28-13.52-5.3-14.91-5.35-2.3-16.72-6.77l-1.73-.68C353.51,151.32,341,145.19,341,145.19l-4.8-5.9h-2.14l.7,1.5,0,.05c-.34,1.52-.73,3-1.17,4.37a.36.36,0,0,1,0,.11C327,166.14,310,172.85,310,172.85c-11.8-8.71-11.57-22.54-11.57-22.54v-1.9l-2.21.66-1.51,3.6s-2.56,4-12.7,8.44a60.32,60.32,0,0,0-5.57,2.85c-9.28,5.27-19.6,13.42-20.39,15.15a5.61,5.61,0,0,0-.27.86h0c-1.09,4.28-3.33,20.31-5.41,26a13.1,13.1,0,0,1-4.86,6.56h0a7.61,7.61,0,0,1-1.94,1q-.24,1.32-.45,2.61C238.75,243.62,247,262.23,248.88,263.53Z"/><path class="cls-38" d="M357.71,211.77l8.24,2.77,1.32-1.52s8.15,18.57,15.54,27.66c.88,1.08,1.81,2.15,2.77,3.18a81,81,0,0,0,6.36,6.15l6.28-27.07,3.19-20.55a104.89,104.89,0,0,0-7.84-9.45c-.58-.62-.91-.95-.91-.95s1-3.35,1.75-6.26a1.6,1.6,0,0,1,0-.21.36.36,0,0,1,0-.1.31.31,0,0,1,0-.07c.42-1.79.68-3.34.44-3.72-.63-1-4.3-2.15-4.93-2.9s-3.28-13.52-5.3-14.91c0,0,1.32,12.25-5.69,27.79l-3.41,4.8-10,8S361.84,209.46,357.71,211.77Z"/><path class="cls-39" d="M381.55,233.93c1.77,13.13,21.34,23.24,21.34,23.24,4.36,0,9.23-7.58,13.65-16.93s4.69-36.21,4.92-37.87,2.7-5,2.85-6.4-4-4.36-4-4.36l0-.07,0-.07c.43-.92,2.85-6.11,2.68-7.06s-4.82-3.31-4.82-3.31l-.29,5.11s-10.78-2-14.43-10.39l-.64-2.56-1.8,1.2v11s-.37,1.71-.94,1.71-4.77-2.1-5.65-1.81-1.76,6.17-2.94,6.92-4.3,2.94-4.77,4a19,19,0,0,0-.25,4.15,42.4,42.4,0,0,1-.41,6.94C385.46,210.27,379.78,220.79,381.55,233.93Z"/><path class="cls-40" d="M202.56,222.68c.88,1.39,5.3,4.3,6.44,5.44s0,4.87,0,4.87a153.35,153.35,0,0,0,39.88,30.54l.16.08c11.66-7.84,10.66-20.75,6.79-31.63a82.1,82.1,0,0,0-10.32-19.38h0a24.41,24.41,0,0,0-5.92-1.64,3.59,3.59,0,0,0-2.19.68c-1.42.88-2.62,2.27-3.78,1.69-1.71-.86-5.53-9.89-8.12-10.14-1.81-.17-4.32,1.67-6,2.72-.73.46-1.3.77-1.58.69-.95-.25-4.17-4.11-4.43-4.21s-1.72,1-1.72,1l1,1.28A35,35,0,0,1,206,219.84l-3.47-5.08S201.67,221.29,202.56,222.68Z"/><path class="cls-41" d="M202.56,222.68c.88,1.39,5.3,4.3,6.44,5.44s0,4.87,0,4.87a153.35,153.35,0,0,0,39.88,30.54l.16.08c1.52.19,8.91-1.89,16.3-16.67,6.7-13.39,8.62-22.33,8.93-23.89l0-.24-1.63-2.21-2.42-27.28-1.7,5.49c-6.44-7.77-12.51-19.7-12.51-19.7l-.27.86h0c-1.09,4.28-3.33,20.31-5.41,26a13.1,13.1,0,0,1-4.86,6.56v0h0c5.93,5.41,8.87,13.19,10.32,19.38a53.68,53.68,0,0,1,1.42,10,67.43,67.43,0,0,0-6.82-17,36.5,36.5,0,0,0-7.33-8.85,58.85,58.85,0,0,0-5.72-4.58c-1.42.88-2.62,2.27-3.78,1.69,7.8,11.71,7.61,34.89.28,30.47s-9-13.8-9-13.8c1.73-11.43,1.22-24.32-.17-26.77-1.69,0-6.52,3.45-6.8,3.37A39.6,39.6,0,0,1,212,229l-4.17-6.45a40,40,0,0,0,5.62-20.19c-.25-.11-1.72,1-1.72,1l1,1.28A35,35,0,0,1,206,219.84l-3.47-5.08S201.67,221.29,202.56,222.68Z"/><path class="cls-42" d="M283,306.81v4l.07.07.22.2.18.15c1.8,1.42,9.43,6.07,33.27,7.35C345,320.07,363.77,311,363.77,311l-1.42-3.89s1.32-1.13,1.42-1.7-1-1.9-1-1.9,2.84-1.51,2.84-3.41c0-1.71-4.64-6.66-5.39-11.31a6.76,6.76,0,0,1-.11-1.48c.19-5,4.51-9.43,5.11-12.27v0c.57-2.84-7.39-9.85-7.39-9.85,6.82-21.6,8.15-50.59,8.15-50.59l1.32-1.52s8.15,18.57,15.54,27.66,18.19,16.87,20.08,16.49c4.36,0,9.23-7.58,13.65-16.93s4.69-36.21,4.92-37.87,2.7-5,2.85-6.4c-4.74,8.15-12.29,5.75-12.29,5.75,5.47.12,8.31-10.11,8.31-10.11l0-.07,0-.07,2.67-7.05c-.3.34-6.55,7.33-12.59,3-6.19-4.42-9.38-13-9.38-13v11s-.37,1.71-.94,1.71a134.15,134.15,0,0,0,2.74,17.29c2.81,13.13,6.66,25.81,6.66,25.81s-10.44-5.68-14.11-20.08a60.74,60.74,0,0,1-1.87-17.24,43.22,43.22,0,0,1,.84-7.21,1.6,1.6,0,0,1,0-.21.36.36,0,0,1,0-.1.43.43,0,0,1,0,0l-1,2.14-1.92,4.76c-2.23,18.48,2.37,46.33,2.37,46.33-6.7-8.34-8.09-26.78-7.8-31.26.13-2.14.3-4.78.41-6.94.15-2.36.25-4.15.25-4.15l-13.71,8.18,2.53-8-10,8s-9,10.8-18.19,12.06-43.07.51-43.07.51,29.43,1.89,38,4.42,10.23,5.43,10.23,5.43C346.41,258.44,312,269.09,311,269.41c31.18-4.68,45.69-31.19,45.69-31.19s.51,14.91-1.89,20.59S338.22,278.39,320,281.29a41.89,41.89,0,0,1-4.53.46c-15.34.72-28-7.12-29.34-8l-.11-.07,0,0c.49.75,6.78,9.59,32.18,10.56,1.54.06,3,.05,4.5,0h0c23.54-1,35.53-16.67,35.53-16.67s8.71,4.68,3.15,11.62l-.18.22c-1.64,1.89-5.25,4.2-9.52,6.58l-.35.2c-5.16,2.85-11.21,5.79-15.89,8.22l-.07,0a59.23,59.23,0,0,0-6.52,3.73h0c-1.32,1-1.59,1.58-.3,1.73,6.57.76,31.45-4.67,32.46-3.16s-1.23,5.43-1.23,5.43C337,313.58,288.14,308,286.6,307.83,327.5,318.3,361,305,361,305L359.85,309a146.33,146.33,0,0,1-39.69,6.82c-21.48.5-34.87-5-34.87-5Z"/><path class="cls-43" d="M299.69,216.87s-16.26.89-27,3.73l5.54,8.41A73.77,73.77,0,0,1,299.69,216.87Z"/><path class="cls-44" d="M284.49,261.71s10.15,8.47,20.13,12.38a67.34,67.34,0,0,0,19.58,4.3s-5.74,1.7-19.85-.57-19-9.92-19-9.92Z"/><path class="cls-45" d="M279.94,294.32h0c18.78,4.85,42.62-2.11,42.42-3s-6.53.38-21.21-2.56c-14.23-2.85-19.39-7.91-19.7-8.22.12.86,2.08,2.75,2.64,4.81C284.47,286.77,281.81,291.09,279.94,294.32Z"/><path class="cls-46" d="M331,219.42c16,1.63,20.36,6.1,20.36,6.1,4.51.57,14.64-11,14.64-11l1.32-1.52s8.15,18.57,15.54,27.66c.88,1.08,1.81,2.15,2.77,3.18l-1.05-2.36s-1.72-.82-2.22-9.85,3.79-22.48,3.82-24.31.66-11.09.66-11.09l-13.71,8.18,2.53-8-10,8s-3.91,5.88-13.78,10.78C342.54,219.84,332.1,219.47,331,219.42Z"/><path class="cls-47" d="M367.27,213l-9.56-1.25a71.87,71.87,0,0,1-11.48,5.65l6.39,9.43s-2.54,13.44-9.82,21c0,0,19.32-10.73,22-19.75Z"/><path class="cls-48" d="M423.06,184.42l-2.73,7.19s-2.78,9.7-8.31,10.11-10.93-16.27-10.93-16.27v-11s5.88,12.6,12.23,14S423.06,184.42,423.06,184.42Z"/><path class="cls-49" d="M390,178.73s-4.93,9.85-11,12.88c0,0,7.21-17.5,5.69-27.79C384.71,163.82,387.36,165.47,390,178.73Z"/><path class="cls-50" d="M270.26,193.32l-1.7,5.49-1.72,45.05a109.09,109.09,0,0,0,7.43-20.81l-1.59-2.45S270,203.62,270.26,193.32Z"/><path class="cls-51" d="M217.91,206.58s1,22.13-8.44,24L209,233S221.17,232.54,217.91,206.58Z"/><path class="cls-52" d="M233.6,213.31s.36.79,3.78-1.69c0,0,11.83,8.38,16.39,20.19,0,0-7.29-10.85-11.17-12s-4.82,3.16-4.82,3.16S236.24,216.84,233.6,213.31Z"/><path class="cls-53" d="M424.31,196s-4.55,8.39-13.08,5.76c0,0,5.11,3.44,10.23.64C421.46,202.37,424.64,196.92,424.31,196Z"/><path class="cls-54" d="M394.5,185.35s-6.26,23.4,10.07,41a27.14,27.14,0,0,1-13-18.05A38.75,38.75,0,0,1,394.5,185.35Z"/><path class="cls-55" d="M282.36,166.65s.7,10.56,5.77,18.14,15.1,12.69,15.1,12.69-12.6-4.64-18.38-11.17S282.36,166.65,282.36,166.65Z"/><path class="cls-56" d="M346.81,150.76A66.82,66.82,0,0,1,344,168.59c-2.84,9-27.51,24.73-27.51,24.73s25.42-10.57,30.35-20.06S346.81,150.76,346.81,150.76Z"/><path class="cls-57" d="M294.71,152.67c.78,9.3,3.61,15.78,6.63,20.15,4.16,6,8.66,8.05,8.66,8.05a52,52,0,0,0,11.76-7.09A60,60,0,0,0,341,145.28c-6,14.54-14.86,23.35-21.56,28.31a43.28,43.28,0,0,1-9.41,5.52v-4.65a30.9,30.9,0,0,0,3.1-1.36c11.8-5.95,18-18.35,20.9-26.37l0,0a57,57,0,0,0,2.18-7.39h-2.14l.7,1.5,0,.05c-.34,1.52-.73,3-1.17,4.37a.36.36,0,0,1,0,.11C327,166.14,310,172.85,310,172.85c-11.8-8.71-11.57-22.54-11.57-22.54v-1.9l-2.21.66Z"/><path class="cls-58" d="M224.71,203.21s3.21,10.47.17,26.77c0,0-1.51-20.65-2.65-22.45s-4.32-.95-4.32-.95A72.14,72.14,0,0,1,224.71,203.21Z"/><path class="cls-59" d="M255.83,260.18c2.8-2.45,6.16-6.54,9.51-13.24,6.7-13.39,8.62-22.33,8.93-23.89l-1.59-2.45L270.55,200l-2-1.19a84.28,84.28,0,0,1-12.51-19.7,5.61,5.61,0,0,0-.27.86h0c-1.09,4.28-3.33,20.31-5.41,26a13.1,13.1,0,0,1-4.86,6.56s12.31,18.26,12.91,31.29C259,255.72,256.31,259.58,255.83,260.18Z"/><path class="cls-60" d="M328.92,298.26s22.19-3.64,31.25-9.48h0a6.76,6.76,0,0,1-.11-1.48c.19-5,4.51-9.43,5.11-12.27-.1.27-.75,1.77-3.9,4.47a66.94,66.94,0,0,1-9.52,6.58l-.35.2c-6.4,3.78-11.91,6.34-15.89,8.22l-.07,0c-3.58,1.68-5.9,2.79-6.52,3.73Z"/><path class="cls-61" d="M281.45,280.59c.12.86,2.08,2.75,2.64,4.81,0,0,8.14,8.62,38.27,6-.2-.85-6.53.38-21.21-2.56C286.92,286,281.76,280.9,281.45,280.59Z"/><path class="cls-62" d="M276.44,164l19.26,6.24,5.64,2.62H310l3.1.25,1.64.12,4.67.37,2.35.19,23.1-8.36,4.13-1.49,19-6.88-1.73-.68C353.51,151.32,341,145.19,341,145.19l-4.8-5.9h-2.14a71.16,71.16,0,0,1-4-11.17l-1.27-5.71c-.09-.55-.13-.85-.13-.85l-6.8,3.59-22.93,18.34c0,1.25,0,2.37-.09,3.32l-.33,2.31c-.06-.45-.08-.71-.08-.71l-2.21.66-1.51,3.6s-2.56,4-12.7,8.44A60.32,60.32,0,0,0,276.44,164Z"/><path class="cls-63" d="M291.11,146.39A31.37,31.37,0,0,0,310,143.61c9.91-4.8,18.24-19,18.75-22.48s-3.79-12.76-3.79-20,3.53-19.58-2.4-26.28-33.22-7.7-42.07.89c0,0-2.74,6.88-2.74,10.77a28.33,28.33,0,0,0,.42,3.91c.08.59.19,1.22.29,1.87.79,4.71,1.88,10.46,1.37,13a12.64,12.64,0,0,1-.79,2.46h0c-1.09,2.52-2.71,4.53-3,6.71C275.66,117.34,279.48,137.55,291.11,146.39Z"/><path class="cls-64" d="M325,99.14s2.45-6.15,8.61-6.25c0,0,3.6,1.43,4.17,4.17,0,0-1.33,10-2.84,14.59s-7.08,4-7.08,4A23.59,23.59,0,0,1,325,99.14Z"/><path class="cls-65" d="M301.37,119.39a5.65,5.65,0,0,0-2.94.5c-.88.67-4.1,3.79-8.18,4.65s-6.8-2.62-7.67-2.8-1.82,1.05-1.82,1.05a3.42,3.42,0,0,1,2.49-2.06s.86,3.27,6.77,2.15,8.41-3.74,8.41-3.74l.3-.54A16.22,16.22,0,0,1,301.37,119.39Z"/><path class="cls-66" d="M310.08,88.8l-.08-.63s-5.89-10.34-17.54-10.62-14.29,7-14.29,7L276,81.29l4.92-10,34.24-.56,8.34,6.72,1.05,16.47-3.71,21.74-9,4.8-2.54-2.25c.94-7.28,6.35-13.93,6.35-13.93l-3.95-2.74s-10.13,4.9-16,3.43c0,0-4.41-12.85-4.15-22.38C291.55,82.59,306.56,84.81,310.08,88.8Z"/><path class="cls-67" d="M310.6,89.56s-.57-3.72-6.85-5.21c-7-1.66-12.69-3.06-12.69-3.06s1.24,4.08,3.57,5.61c0,0,7.41-.27,11.16.59S310.6,89.56,310.6,89.56Z"/><path class="cls-68" d="M278.17,84.57s3.56,2.74,6,9.27c0,0-2.32-3-4.45-3a1.22,1.22,0,0,0-1.23,1.47A13.65,13.65,0,0,1,278.17,84.57Z"/><path class="cls-69" d="M308.25,100.09s-.38-7.86-8.05-9.85a16,16,0,0,0-3,7.58S301.24,97.06,308.25,100.09Z"/><path class="cls-70" d="M286.27,103.22s-.62-6.26-4.21-8.57c0,0-2.45,1.83-2.2,7.07C279.86,101.72,282,101,286.27,103.22Z"/><path class="cls-71" d="M308.25,100.09s-2.49,3.07-9.47,3.67a10.93,10.93,0,0,1-1.2-6S304,97.16,308.25,100.09Z"/><path class="cls-71" d="M286.27,103.22v.92s-1.07,2.24-4.92,2.62a10.82,10.82,0,0,1-1.35-5.07S282.45,101.07,286.27,103.22Z"/><path class="cls-72" d="M300.79,97.61a8.64,8.64,0,0,1,1.61,5.55,27.25,27.25,0,0,1-3.62.6,9.41,9.41,0,0,1-1.2-6A9.78,9.78,0,0,1,300.79,97.61Z"/><path class="cls-72" d="M282.62,101.79s1,1.08,1.19,4.37a7.52,7.52,0,0,1-2.46.6,9.08,9.08,0,0,1-1.35-5.07A4.38,4.38,0,0,1,282.62,101.79Z"/><path class="cls-73" d="M301.37,103.39s.63-4.25-1.8-5.87l-2,.25a8.59,8.59,0,0,0,1.2,6S300.76,103.53,301.37,103.39Z"/><path class="cls-73" d="M281.74,101.61a18.14,18.14,0,0,1,1.32,4.83,5.55,5.55,0,0,1-1.71.32,8.27,8.27,0,0,1-1.35-5.07A4,4,0,0,1,281.74,101.61Z"/><path class="cls-74" d="M308.25,100.09s-4.64-2.7-12.55-1.16l1.47-1.11A13.24,13.24,0,0,1,308.25,100.09Z"/><path class="cls-74" d="M286.27,103.22a12.49,12.49,0,0,0-8.06-.93L280,101S282.91,100.52,286.27,103.22Z"/><path class="cls-4" d="M303.23,100.09a2.77,2.77,0,0,0-2.4.88A2.2,2.2,0,0,0,303.23,100.09Z"/><path class="cls-4" d="M284.57,103.76s-2-.39-2.67.52C281.9,104.28,283,105,284.57,103.76Z"/><path class="cls-75" d="M307.79,100.55A18.19,18.19,0,0,1,298.4,105l-.15-2.1.53.89S304.33,103.43,307.79,100.55Z"/><path class="cls-75" d="M286.27,104.14s-.64,2.3-5.34,3.34l.15-1.12.27.4S284.69,106.33,286.27,104.14Z"/><path class="cls-76" d="M295.7,113.36a16.67,16.67,0,0,0-5,0c-3.22.38-6.85,1.26-8.83,0,0,0,2.63,2.63,4.91,3s5.75-1.6,5.75-1.6l1.51,0A4.19,4.19,0,0,0,295.7,113.36Z"/><path class="cls-77" d="M293.85,114.81a2.46,2.46,0,0,0-1.45-.38c-.66.13-1.34,1.09-1.34,1.09A6.61,6.61,0,0,1,293.85,114.81Z"/><path class="cls-34" d="M281.9,113.36c-.84-.82,3.52-8.59,5.61-8.87s4,8.7,4,8.7-2.9.41-5.71.78S281.9,113.36,281.9,113.36Z"/><path class="cls-78" d="M278.79,88.92c1.18-.15,5.35,4.92,5.35,4.92s2.65,8.21,2.13,10.64-7,3.73-7,3.73l-.27-.43h0a12.64,12.64,0,0,0,.79-2.46c.51-2.52-.58-8.27-1.37-13a9.67,9.67,0,0,1-.29-1.87C278.14,89.7,278.25,89,278.79,88.92Z"/><path class="cls-79" d="M276.73,120.05c.14.94,3.35,21.16,12.72,27.27h0s8.47,2.09,21.35-2.71c0,0,14.48-8.29,18-22.21a10.91,10.91,0,0,0-.9-6.79s-2.43-1-3.54-7.41a16.13,16.13,0,0,1,2.52-12,23.73,23.73,0,0,1,.61-8.21c1.14-4.36,3.29-8.59,2.34-11.68s-8.87-5.06-12.47-8a15.68,15.68,0,0,1-1.59-1.49l0,0a.33.33,0,0,1-.06-.06c-.47-.5-.86-1-1.24-1.47l-.39-.47-.37-.44a13.87,13.87,0,0,0-5.13-3.72c-5.48-2.54-9.35-2.93-13.31-6.48l-.05-.05a17.22,17.22,0,0,0,1.14,6.72s-12.13-2.74-15-2.74-3.79,9.09-3.79,9.09h0a45.38,45.38,0,0,0-4.82,8c-.67,1.69,5.2,13.63,5.2,13.63a17.42,17.42,0,0,1,2.94-10.89l1.33,1.23s.05-.12.16-.32c.55-1,2.5-4.21,5.9-5.08,0,0,0,.66,10.71-.48s15.06-1.7,17.62.76,1.61,8.24-.76,10.23c0,0,6.54,6.92,6.35,16.68-.18,9.39-7.27,16.36-10.28,17.53a2.67,2.67,0,0,1-.33.12c-2.78.76-4.18-4.23-20.53-2.08-11.55,1.51-10.73,3-12.06,5.74C278.63,123,276.89,120.3,276.73,120.05Zm3.26,6.13c-.08-4.3,3-5.69,3.54-5.43s2.27,1.12,7,.81a14.8,14.8,0,0,0,7.89-3s6.11.63,7.85,5.56-6.33,8.21-7.85,8.08-5.3-4.42-5.3-4.42-4.11-.31-4.87.44-1.23,6.51-3.5,6.89S280,129.17,280,126.18Z"/><path class="cls-80" d="M285.35,106.21s-4.08,5.07-3.69,7c.42,2.09,5.15,3.2,5.15,3.2s-3.79-1.31-4.57-3.2A25.4,25.4,0,0,1,285.35,106.21Z"/><path class="cls-81" d="M277.93,88.82a17.42,17.42,0,0,1,2.94-10.89,29.09,29.09,0,0,1-3.31-10.71h0a36.71,36.71,0,0,0-1.54,7.1l-3.28.86C272.06,76.88,277.93,88.82,277.93,88.82Z"/><path class="cls-82" d="M282.36,78.84c.55-1,2.5-4.21,5.9-5.08,0,0,0,.66,10.71-.48s15.06-1.7,17.62.76,1.61,8.24-.76,10.23c0,0,6.54,6.92,6.35,16.68-.18,9.39-7.27,16.36-10.28,17.53l.14,1s-.53,21.5-5.76,23.21-16.06.82-17.07,1.83.14,2.61.24,2.76h0s8.47,2.09,21.35-2.71c0,0,14.48-8.29,18-22.21a10.91,10.91,0,0,0-.9-6.79s-2.43-1-3.54-7.41a16.13,16.13,0,0,1,2.52-12,23.73,23.73,0,0,1,.61-8.21c1.14-4.36,3.29-8.59,2.34-11.68a13.64,13.64,0,0,1-10-2.21s-1.06-1.47-5.75-2.23-23.54,1.14-23.54,1.14a16.2,16.2,0,0,1,5.87-2.61c3.76-1,16.6.16,18,.27-1.47-.26-16-2.76-17.69-2.26s-8.06,3.41-8.06,3.41C289.16,69,294.8,62,294.8,62A88.48,88.48,0,0,1,308,63.24a17,17,0,0,1,7.7,3.54l-1.24-1.47-.39-.47-.37-.44-1.82-.31-9.14-3.69c-3.07-1.64-7-5.7-7.48-6.2l-.05-.05a17.22,17.22,0,0,0,1.14,6.72C288.6,59.92,286,60.4,286,60.4,282.48,65.37,282.36,78.84,282.36,78.84Z"/><path class="cls-83" d="M310.81,144.62a48.4,48.4,0,0,0-11.87-.84c-7.15.29-11.25.32-9.48,3.55C289.46,147.33,298.43,149.36,310.81,144.62Z"/><path class="cls-84" d="M286,60.4s-4.34-1.69-6.06-1.42a3.37,3.37,0,0,1,1.39-1.09c.71-.19,15,3,15,3S287.41,59.83,286,60.4Z"/><path class="cls-84" d="M294.8,62s.34,4.73,1.85,6.44l17.69,2.26,5.19-.92a12.86,12.86,0,0,1-4.21-3.43C313.11,63.78,301.57,61.25,294.8,62Z"/><path class="cls-84" d="M277.56,67.22A39.82,39.82,0,0,0,276,74.33l-3.28.86A23.67,23.67,0,0,1,277.56,67.22Z"/><path class="cls-85" d="M325.76,107.48s1.25-6,4.3-8.92a7.16,7.16,0,0,1,6.52-2s-.95,11.07-1.94,13.77-2.51,3.41-2.51,3.41a8.52,8.52,0,0,0,2.41-5.53c.29-3.66.38-8.83-.42-9.44s-4.06,1.78-4.06,1.78a10.93,10.93,0,0,1,1.64,4.52c.62,3.27-1.66,5.64-2.51,5.59s.05-3.78-.1-4.85S327.06,105,325.76,107.48Z"/><path class="cls-86" d="M328.81,100.07a7.46,7.46,0,0,1,3,6.67c-.36,4.49-2.93,4.29-2.94,3.35s.49-3.37.23-4.74-2.47-.75-2.47-.75A31.85,31.85,0,0,1,328.81,100.07Z"/><path class="cls-84" d="M307.76,70.24a51.22,51.22,0,0,1-10.59,2.21l-6.68.6s2.23-2.16,7-2.81A48.08,48.08,0,0,1,307.76,70.24Z"/><path class="cls-87" d="M283.36,120.46s-2.42,0-3.37,3a25.24,25.24,0,0,0-1,4.5l-.85-3.32s1.11-4.21,2.27-5.15c.84-.69,2.28-1.38,3-1.21Z"/><path class="cls-88" d="M289.87,117.43l-.41,3.6a12.75,12.75,0,0,1-4.89-.57l-.35-2.18A27.6,27.6,0,0,1,289.87,117.43Z"/><path class="cls-89" d="M248.34,134.61l-3.22,91.8a6.76,6.76,0,0,1-6.76,6.53H80.23a6.77,6.77,0,0,1-6.76-6.61l-2.21-92.86a6.76,6.76,0,0,1,6.8-6.93l163.57,1.07A6.76,6.76,0,0,1,248.34,134.61Z"/><path class="cls-90" d="M73.22,226.34,71,133.47a7,7,0,0,1,2-5.08,7.07,7.07,0,0,1,5-2.1l163.57,1.07a7,7,0,0,1,7,7.26l-3.22,91.8a7,7,0,0,1-7,6.77H80.23A7,7,0,0,1,73.22,226.34Zm.15-97.6a6.49,6.49,0,0,0-1.87,4.72l2.22,92.87a6.55,6.55,0,0,0,6.51,6.36H238.36a6.49,6.49,0,0,0,6.51-6.29l3.22-91.79a6.52,6.52,0,0,0-6.46-6.75L78.06,126.79h0A6.46,6.46,0,0,0,73.37,128.74Z"/><path class="cls-91" d="M248.11,139.29H71.44l-.28-4.84a7.42,7.42,0,0,1,7.46-7.85l163.5,1.29a6.13,6.13,0,0,1,6.08,6.25Z"/><polygon class="cls-92" points="239.22 146.7 239.22 199.82 185.15 199.82 185.15 146.42 239.22 146.7"/><rect class="cls-93" x="109.37" y="150.26" width="23.52" height="23.52" transform="translate(242.25 324.04) rotate(180)"/><rect class="cls-94" x="81.61" y="150.26" width="23.52" height="23.52" transform="translate(186.75 324.04) rotate(180)"/><rect class="cls-95" x="137.58" y="150.26" width="23.52" height="23.52" transform="translate(298.69 324.04) rotate(180)"/><rect class="cls-96" x="81.61" y="187.5" width="60.15" height="5.63" transform="translate(223.38 380.63) rotate(180)"/><rect class="cls-96" x="81.61" y="196.07" width="75.2" height="1.74" transform="translate(238.42 393.89) rotate(180)"/><rect class="cls-96" x="141.72" y="176.78" width="14.39" height="1.74" transform="translate(297.82 355.31) rotate(180)"/><rect class="cls-96" x="113.93" y="176.78" width="14.39" height="1.74" transform="translate(242.25 355.31) rotate(180)"/><rect class="cls-96" x="86.18" y="176.78" width="14.39" height="1.74" transform="translate(186.75 355.31) rotate(180)"/><rect class="cls-96" x="136.92" y="198.91" width="24.19" height="1.74" transform="translate(298.02 399.56) rotate(180)"/><rect class="cls-96" x="81.61" y="201.71" width="75.2" height="1.74" transform="translate(238.42 405.16) rotate(180)"/><rect class="cls-96" x="81.61" y="204.51" width="79.49" height="1.74" transform="translate(242.72 410.76) rotate(180)"/><rect class="cls-96" x="81.61" y="207.31" width="79.49" height="1.74" transform="translate(242.72 416.36) rotate(180)"/><rect class="cls-96" x="81.61" y="218.63" width="75.2" height="1.74" transform="translate(238.42 439.01) rotate(180)"/><rect class="cls-96" x="81.61" y="221.43" width="79.49" height="1.74" transform="translate(242.72 444.61) rotate(180)"/><rect class="cls-96" x="81.61" y="224.23" width="79.49" height="1.74" transform="translate(242.72 450.21) rotate(180)"/><rect class="cls-96" x="84.81" y="210.11" width="76.3" height="1.74" transform="translate(245.92 421.97) rotate(180)"/><rect class="cls-96" x="81.61" y="212.91" width="75.2" height="1.74" transform="translate(238.42 427.57) rotate(180)"/><rect class="cls-96" x="96.7" y="215.71" width="64.41" height="1.74" transform="translate(257.81 433.17) rotate(180)"/><g class="cls-97"><path class="cls-98" d="M208.69,173.78a15.39,15.39,0,1,1,15.38,15.39A15.4,15.4,0,0,1,208.69,173.78Zm1,0a14.39,14.39,0,1,0,14.38-14.38A14.4,14.4,0,0,0,209.69,173.78Z"/></g><circle class="cls-4" cx="224.07" cy="173.78" r="8.36"/><g class="cls-97"><path class="cls-98" d="M169.76,146.42a15.39,15.39,0,1,1,15.39,15.38A15.41,15.41,0,0,1,169.76,146.42Zm1,0A14.39,14.39,0,1,0,185.15,132,14.4,14.4,0,0,0,170.76,146.42Z"/></g><circle class="cls-4" cx="185.15" cy="146.42" r="7.87" transform="translate(-21.37 32.1) rotate(-9.37)"/><g class="cls-97"><polygon class="cls-4" points="241.92 132.08 240.79 130.38 234.71 135.7 235.65 137 241.92 132.08"/><polygon class="cls-4" points="234.56 132.08 235.68 130.38 241.76 135.7 240.83 137 234.56 132.08"/></g><rect class="cls-4" x="75.72" y="131.53" width="54.44" height="2.73" transform="translate(205.87 265.8) rotate(180)"/><polygon class="cls-99" points="416.65 92.12 416.65 115.75 388.39 115.99 388.01 91.36 416.65 92.12"/><polygon class="cls-100" points="388.01 91.36 386.17 94.47 387.09 115.97 388.39 115.99 388.01 91.36"/><polygon class="cls-4" points="411.61 100.1 409 96.31 394.88 108.15 397.05 111.04 411.61 100.1"/><polygon class="cls-4" points="394.52 100.1 397.13 96.31 411.24 108.15 409.08 111.04 394.52 100.1"/><path class="cls-101" d="M350.73,370.18h96.69a7.93,7.93,0,0,0,7.92-7.74l1.8-79.3a7.91,7.91,0,0,0-7.92-8.1H348.56a7.92,7.92,0,0,0-7.92,8.13l2.17,79.31A7.92,7.92,0,0,0,350.73,370.18Z"/><path class="cls-102" d="M342.56,362.49l-2.17-79.31a8.16,8.16,0,0,1,8.17-8.39H449.22a8.16,8.16,0,0,1,8.17,8.35l-1.8,79.31a8.22,8.22,0,0,1-8.17,8H350.73A8.13,8.13,0,0,1,342.56,362.49Zm6-87.2a7.67,7.67,0,0,0-7.67,7.88l2.17,79.3a7.64,7.64,0,0,0,7.67,7.46h96.69a7.72,7.72,0,0,0,7.67-7.49l1.8-79.31a7.65,7.65,0,0,0-7.67-7.84Z"/><rect class="cls-4" x="380.23" y="291.26" width="50.85" height="2.18" transform="translate(811.31 584.69) rotate(180)"/><rect class="cls-4" x="405.65" y="296.55" width="25.42" height="2.18" transform="translate(836.73 595.28) rotate(180)"/><rect class="cls-4" x="405.65" y="300.98" width="25.42" height="2.18" transform="translate(836.73 604.13) rotate(180)"/><rect class="cls-4" x="382.57" y="300.98" width="20.23" height="2.18" transform="translate(785.37 604.13) rotate(180)"/><rect class="cls-4" x="390.09" y="305.4" width="40.99" height="2.18" transform="translate(821.17 612.97) rotate(180)"/><rect class="cls-4" x="416.49" y="309.82" width="14.59" height="2.18" transform="translate(847.57 621.81) rotate(180)"/><rect class="cls-4" x="388.26" y="323.08" width="25.23" height="2.18" transform="translate(801.74 648.34) rotate(180)"/><rect class="cls-4" x="385.35" y="314.24" width="45.73" height="2.18" transform="translate(816.43 630.65) rotate(180)"/><rect class="cls-4" x="395.9" y="318.66" width="35.18" height="2.18" transform="translate(826.98 639.5) rotate(180)"/><rect class="cls-4" x="414.53" y="323.08" width="16.55" height="2.18" transform="translate(845.61 648.34) rotate(180)"/><rect class="cls-4" x="405.65" y="327.5" width="25.42" height="2.18" transform="translate(836.73 657.18) rotate(180)"/><rect class="cls-4" x="423.78" y="331.92" width="7.29" height="2.18" transform="translate(854.86 666.02) rotate(180)"/><rect class="cls-4" x="394.32" y="331.92" width="26.46" height="2.18" transform="translate(815.1 666.02) rotate(180)"/><rect class="cls-4" x="388.26" y="336.21" width="25.23" height="2.18" transform="translate(801.74 674.6) rotate(180)"/><rect class="cls-4" x="414.53" y="336.21" width="16.55" height="2.18" transform="translate(845.61 674.6) rotate(180)"/><rect class="cls-4" x="405.65" y="340.63" width="25.42" height="2.18" transform="translate(836.73 683.44) rotate(180)"/><rect class="cls-4" x="423.78" y="345.06" width="7.29" height="2.18" transform="translate(854.86 692.29) rotate(180)"/><rect class="cls-4" x="394.32" y="345.06" width="26.46" height="2.18" transform="translate(815.1 692.29) rotate(180)"/><path class="cls-103" d="M91.28,108.84a4.47,4.47,0,1,0,4.47-4.47A4.47,4.47,0,0,0,91.28,108.84Z"/><path class="cls-104" d="M510.18,212.48a5.57,5.57,0,1,0,5.56-5.56A5.56,5.56,0,0,0,510.18,212.48Z"/><circle class="cls-105" cx="82.63" cy="108.84" r="4.47"/><circle class="cls-106" cx="370.8" cy="139.57" r="3.16"/><circle class="cls-107" cx="159.14" cy="279" r="3.16"/><circle class="cls-108" cx="487.66" cy="310.51" r="2.82"/><path class="cls-109" d="M439.51,282.77h48.8a7.28,7.28,0,0,0,7.27-7l1.09-32.09a7.28,7.28,0,0,0-7.28-7.53H438.52a7.28,7.28,0,0,0-7.27,7.5l1,32.1A7.28,7.28,0,0,0,439.51,282.77Z"/><path class="cls-110" d="M432,275.72l-1-32.1a7.53,7.53,0,0,1,7.52-7.76h50.87a7.55,7.55,0,0,1,7.53,7.79l-1.09,32.09a7.5,7.5,0,0,1-7.52,7.28h-48.8A7.49,7.49,0,0,1,432,275.72Zm6.54-39.36a7,7,0,0,0-7,7.25l1,32.09a7,7,0,0,0,7,6.82h48.8a7,7,0,0,0,7-6.8l1.09-32.09a7,7,0,0,0-7-7.27Z"/><polygon class="cls-4" points="475.3 247.64 487.33 261.59 475.07 271.99 475.07 266.62 482.16 260.48 475.58 253.04 475.3 247.64"/><polygon class="cls-4" points="454.15 248.27 442.11 262.21 454.37 272.61 454.37 267.25 447.28 261.11 455.17 252.76 454.15 248.27"/><polygon class="cls-4" points="472.67 271.99 462.19 248.89 457.26 248.89 469.14 271.99 472.67 271.99"/><path class="cls-111" d="M111.18,348.82h61a9.1,9.1,0,0,0,9.1-8.8l1.36-40.15a9.12,9.12,0,0,0-9.11-9.42H110a9.12,9.12,0,0,0-9.11,9.39L102.07,340A9.11,9.11,0,0,0,111.18,348.82Z"/><path class="cls-110" d="M101.82,340l-1.23-40.16A9.36,9.36,0,0,1,110,290.2h63.63a9.36,9.36,0,0,1,9.36,9.68L181.58,340a9.32,9.32,0,0,1-9.35,9h-61A9.33,9.33,0,0,1,101.82,340ZM110,290.7a8.86,8.86,0,0,0-8.86,9.13L102.32,340a8.82,8.82,0,0,0,8.86,8.59h61a8.82,8.82,0,0,0,8.85-8.56l1.36-40.15a8.87,8.87,0,0,0-8.86-9.16Z"/><rect class="cls-96" x="114.54" y="296.91" width="55.91" height="33.21" transform="translate(285 627.03) rotate(180)"/><polygon class="cls-4" points="147.45 305.15 147.45 321.88 133.16 312.75 147.45 305.15"/><rect class="cls-96" x="114.54" y="336.24" width="55.91" height="3.04" transform="translate(285 675.51) rotate(180)"/><rect class="cls-4" x="155.98" y="336.24" width="14.47" height="3.04"/><path class="cls-112" d="M214.33,294.76l-2.91-8.34C210.4,287.16,212.72,290.15,214.33,294.76Zm2.93,8.35-2.93-8.35C216,299.38,216.52,302.89,217.26,303.11Zm-2.93-8.35-2.91-8.34C210.4,287.16,212.72,290.15,214.33,294.76Zm2.93,8.35-2.93-8.35C216,299.38,216.52,302.89,217.26,303.11ZM206.47,303a22.31,22.31,0,0,0,2.31,3.21l-1.36,3.91,5.89,4.46.58-4.42a9,9,0,0,0,3.63.85l.56,2,.81,3,5.26-2.05-2-4.65a9.13,9.13,0,0,0,2.25-3l3.29,3.14,1.56-7.36-3.43-2.15a22.54,22.54,0,0,0-.43-5.09l3.28-.55-3.06-8.35-2.84,1.6a22.31,22.31,0,0,0-2.87-4.18l1.36-3.92L215.36,275l-.59,4.42a8.74,8.74,0,0,0-3.62-.85l-1.28-4.68h0l-5.35,1.74,2,4.64a6,6,0,0,0-.57.56,9.41,9.41,0,0,0-1.68,2.45L201,280.1l-1.56,7.36,3.43,2.15a21.39,21.39,0,0,0,.28,4.17c0,.3.09.61.15.92l-3.28.55,3.06,8.35,2.84-1.6C206.09,302.33,206.27,302.66,206.47,303Zm4.95-16.56c2.92-1,6.6,1.88,8.22,6.49s.55,9.17-2.38,10.2-1.31-3.73-2.93-8.35S208.48,287.44,211.42,286.42Zm2.91,8.34-2.91-8.34C210.4,287.16,212.72,290.15,214.33,294.76Zm2.93,8.35-2.93-8.35C216,299.38,216.52,302.89,217.26,303.11Z"/><path class="cls-113" d="M206.47,303l4.59,2.83-3.64,4.29,5.89,4.46,4.77-1.55,2.78-.91-.76,1.45L218.89,316l7.54-2.45,5.28-2.06L230,307.53l5.23-.57-2.72-9.91L227,281.78l1.78-4.82-5.88-4.45-4.59,2.18-1-3.6-5.27,2.06-2.19.71-5.35,1.74,2.63,5.36,1.39-3.31L201,280.1l-1.14,7.15,3.46,1.69.33,4.6-.5.24L200,295.25l3.06,8.35Zm10.79.13-2.93-8.35-2.91-8.34c2.92-1,6.6,1.88,8.22,6.49S220.19,302.08,217.26,303.11Z"/><path class="cls-114" d="M213.46,299.54a22.39,22.39,0,0,0,2.87,4.19L215,307.64l5.89,4.46.58-4.42a8.94,8.94,0,0,0,3.63.85l1.36,5,5.27-2.05-2-4.64a9.17,9.17,0,0,0,2.25-3l3.29,3.14,1.56-7.36-3.43-2.15a22.44,22.44,0,0,0-.44-5.08l3.28-.55-3-8.35-2.84,1.6a22.39,22.39,0,0,0-2.87-4.19l1.35-3.92-5.89-4.45-.58,4.41a8.92,8.92,0,0,0-3.62-.84l-1.37-5-5.27,2.06,2,4.64a9,9,0,0,0-2.25,3l-3.29-3.14L207,285l3.43,2.15a23.13,23.13,0,0,0,.44,5.08l-3.28.55,3.06,8.35Zm3.12-5.38C215,289.55,216,285,219,284s6.61,1.88,8.23,6.49.55,9.17-2.38,10.2S218.19,298.77,216.58,294.16Z"/><polygon class="cls-115" points="199.43 287.46 206.97 285.01 210.4 287.16 202.86 289.61 199.43 287.46"/><polygon class="cls-116" points="207.42 310.1 214.97 307.64 216.33 303.73 208.78 306.19 207.42 310.1"/><polygon class="cls-115" points="214.07 277.79 209.94 278.99 208.54 277.65 205.79 278.54 204.52 275.6 212.06 273.14 214.07 277.79"/><path class="cls-115" d="M225.07,308.53l-3.95,1.64.32-2.49A7.08,7.08,0,0,0,225.07,308.53Z"/><path class="cls-115" d="M224.46,285.9l-6.66,3.52a10.23,10.23,0,0,0-1.71-1.81S217.83,280.27,224.46,285.9Z"/><polygon class="cls-117" points="377.21 36.96 370.8 49.81 375.08 51.76 381.08 39.96 377.21 36.96"/><polygon class="cls-118" points="521.66 336.3 515.72 342.82 513.39 340.13 519 333.96 521.66 336.3"/><polygon class="cls-119" points="219.88 115.37 225.87 119 228.26 114.45 221.72 110.64 219.88 115.37"/><polygon class="cls-119" points="190.44 345.08 199.01 351.17 201.41 346.63 193.09 341.77 190.44 345.08"/><polygon class="cls-120" points="201.76 84.3 203.21 50.64 159.14 50.64 160.95 84.2 201.76 84.3"/><polygon class="cls-121" points="203.21 50.64 204.53 52.62 203.21 84.3 201.76 84.3 203.21 50.64"/><polygon class="cls-4" points="188.58 57.36 195.49 56.62 194.55 79.68 188.58 79.1 188.58 76.71 192.03 76.79 192.43 59.01 188.58 59.12 188.58 57.36"/><polygon class="cls-4" points="174.41 57.36 167.5 56.62 168.45 79.68 174.41 79.1 174.41 76.71 170.96 76.79 170.56 59.01 174.41 59.12 174.41 57.36"/><polygon class="cls-122" points="505.65 157.98 504.66 135.03 534.7 135.03 533.47 157.91 505.65 157.98"/><polygon class="cls-123" points="504.66 135.03 503.76 136.39 504.66 157.98 505.65 157.98 504.66 135.03"/><path class="cls-4" d="M516.23,139.65a20.7,20.7,0,0,0-3.87.14c-.58.27.15,5.64.15,5.64l-1.31,1.2,1.22,1.19s-.06,5.44.71,5.9,3.43,0,3.43,0v-1.36a7.63,7.63,0,0,1-2.52-.16c-.36-.29-.33-5-.33-5l-.58-.63.58-.69s-.1-3.39,0-4.32c0-.62,2.56-.65,2.56-.65Z"/><path class="cls-4" d="M523.78,139.65a20.7,20.7,0,0,1,3.87.14c.59.27-.15,5.64-.15,5.64l1.32,1.2-1.23,1.19s.06,5.44-.71,5.9-3.42,0-3.42,0v-1.36a7.57,7.57,0,0,0,2.51-.16c.36-.29.33-5,.33-5l.58-.63-.58-.69s.11-3.39,0-4.32c0-.62-2.56-.65-2.56-.65Z"/><path class="cls-124" d="M240.41,72.05l19.09-4-7.36,19.27Zm.88.33L252,86.32l6.72-17.58Z"/><rect class="cls-124" x="196.09" y="350.49" width="0.5" height="10.94" transform="translate(-172.46 184.95) rotate(-36.24)"/><polygon class="cls-124" points="260.08 279.16 267.03 270.51 266.64 270.2 259.69 278.85 260.08 279.16"/><polygon class="cls-124" points="474.42 339.88 488.28 329.82 487.99 329.42 474.12 339.48 474.42 339.88"/><rect class="cls-124" x="480.95" y="326.08" width="0.5" height="17.13" transform="translate(-104.38 360.03) rotate(-37.3)"/><rect class="cls-124" x="496.09" y="189.54" width="10.14" height="0.5" transform="translate(-30.77 254.89) rotate(-27.72)"/><polygon class="cls-124" points="151.95 71.37 152.32 71.04 141.95 59.21 141.58 59.54 151.95 71.37"/><rect class="cls-124" x="346.11" y="104.5" width="10.41" height="0.5" transform="translate(101.05 372.64) rotate(-63.55)"/><rect class="cls-124" x="420.85" y="254.21" width="0.5" height="15.54" transform="translate(-50.03 416.88) rotate(-50.09)"/><path class="cls-125" d="M52,338.85A6.89,6.89,0,1,1,45.09,332,6.88,6.88,0,0,1,52,338.85Z"/></g></g></g></svg>